<svg width="50" height="50" viewBox="0 0 50 50" fill="none" xmlns="http://www.w3.org/2000/svg">
<rect width="50" height="50" rx="8" fill="#E9FFF7"/>
<path d="M11.25 33.3327C10.8889 33.3327 10.5903 33.2146 10.3542 32.9785C10.1181 32.7424 10 32.4438 10 32.0827C10 31.7216 10.1181 31.423 10.3542 31.1868C10.5903 30.9507 10.8889 30.8327 11.25 30.8327C11.6111 30.8327 11.9097 30.9507 12.1458 31.1868C12.3819 31.423 12.5 31.7216 12.5 32.0827C12.5 32.4438 12.3819 32.7424 12.1458 32.9785C11.9097 33.2146 11.6111 33.3327 11.25 33.3327ZM11.25 26.2493C10.8889 26.2493 10.5903 26.1313 10.3542 25.8952C10.1181 25.6591 10 25.3605 10 24.9993C10 24.6382 10.1181 24.3396 10.3542 24.1035C10.5903 23.8674 10.8889 23.7493 11.25 23.7493C11.6111 23.7493 11.9097 23.8674 12.1458 24.1035C12.3819 24.3396 12.5 24.6382 12.5 24.9993C12.5 25.3605 12.3819 25.6591 12.1458 25.8952C11.9097 26.1313 11.6111 26.2493 11.25 26.2493V26.2493ZM11.25 19.166C10.8889 19.166 10.5903 19.048 10.3542 18.8118C10.1181 18.5757 10 18.2771 10 17.916C10 17.5549 10.1181 17.2563 10.3542 17.0202C10.5903 16.7841 10.8889 16.666 11.25 16.666C11.6111 16.666 11.9097 16.7841 12.1458 17.0202C12.3819 17.2563 12.5 17.5549 12.5 17.916C12.5 18.2771 12.3819 18.5757 12.1458 18.8118C11.9097 19.048 11.6111 19.166 11.25 19.166ZM17.0833 33.3327V30.8327H40V33.3327H17.0833ZM17.0833 26.2493V23.7493H40V26.2493H17.0833ZM17.0833 19.166V16.666H40V19.166H17.0833Z" fill="#33CC94"/>
</svg>
