<svg width="56" height="56" viewBox="0 0 56 56" fill="none" xmlns="http://www.w3.org/2000/svg">
<rect width="56" height="56" rx="8" fill="#E9FFF7"/>
<path d="M14.25 36.3327C13.8889 36.3327 13.5903 36.2146 13.3542 35.9785C13.1181 35.7424 13 35.4438 13 35.0827C13 34.7216 13.1181 34.423 13.3542 34.1868C13.5903 33.9507 13.8889 33.8327 14.25 33.8327C14.6111 33.8327 14.9097 33.9507 15.1458 34.1868C15.3819 34.423 15.5 34.7216 15.5 35.0827C15.5 35.4438 15.3819 35.7424 15.1458 35.9785C14.9097 36.2146 14.6111 36.3327 14.25 36.3327ZM14.25 29.2493C13.8889 29.2493 13.5903 29.1313 13.3542 28.8952C13.1181 28.6591 13 28.3605 13 27.9993C13 27.6382 13.1181 27.3396 13.3542 27.1035C13.5903 26.8674 13.8889 26.7493 14.25 26.7493C14.6111 26.7493 14.9097 26.8674 15.1458 27.1035C15.3819 27.3396 15.5 27.6382 15.5 27.9993C15.5 28.3605 15.3819 28.6591 15.1458 28.8952C14.9097 29.1313 14.6111 29.2493 14.25 29.2493V29.2493ZM14.25 22.166C13.8889 22.166 13.5903 22.048 13.3542 21.8118C13.1181 21.5757 13 21.2771 13 20.916C13 20.5549 13.1181 20.2563 13.3542 20.0202C13.5903 19.7841 13.8889 19.666 14.25 19.666C14.6111 19.666 14.9097 19.7841 15.1458 20.0202C15.3819 20.2563 15.5 20.5549 15.5 20.916C15.5 21.2771 15.3819 21.5757 15.1458 21.8118C14.9097 22.048 14.6111 22.166 14.25 22.166ZM20.0833 36.3327V33.8327H43V36.3327H20.0833ZM20.0833 29.2493V26.7493H43V29.2493H20.0833ZM20.0833 22.166V19.666H43V22.166H20.0833Z" fill="#33CC94"/>
</svg>
