<svg width="33" height="25" viewBox="0 0 33 25" fill="none" xmlns="http://www.w3.org/2000/svg">
<path d="M27.2805 2.01028C25.2527 1.07981 23.0781 0.394278 20.8044 0.00164704C20.763 -0.00593062 20.7217 0.0130064 20.7003 0.0508812C20.4207 0.548296 20.1109 1.19721 19.8939 1.70726C17.4485 1.34115 15.0156 1.34115 12.6202 1.70726C12.4033 1.18588 12.0822 0.548296 11.8013 0.0508812C11.78 0.01427 11.7386 -0.00466693 11.6972 0.00164704C9.42481 0.393023 7.25023 1.07855 5.22112 2.01028C5.20355 2.01785 5.18849 2.03049 5.1785 2.04689C1.05379 8.20912 -0.076146 14.2199 0.478161 20.1561C0.480669 20.1852 0.496972 20.213 0.519546 20.2306C3.24091 22.2291 5.87703 23.4424 8.46418 24.2466C8.50559 24.2592 8.54946 24.2441 8.57581 24.21C9.1878 23.3743 9.73334 22.493 10.2011 21.5663C10.2287 21.5121 10.2023 21.4477 10.1459 21.4262C9.28061 21.098 8.45666 20.6977 7.66407 20.2433C7.60138 20.2066 7.59636 20.117 7.65403 20.0741C7.82082 19.9491 7.98766 19.819 8.14692 19.6877C8.17573 19.6638 8.21588 19.6587 8.24976 19.6738C13.4567 22.0511 19.0938 22.0511 24.2393 19.6738C24.2732 19.6574 24.3134 19.6625 24.3434 19.6865C24.5027 19.8178 24.6695 19.9491 24.8376 20.0741C24.8952 20.117 24.8915 20.2066 24.8288 20.2433C24.0362 20.7066 23.2122 21.098 22.3457 21.4249C22.2893 21.4464 22.2642 21.5121 22.2918 21.5663C22.7696 22.4917 23.3151 23.373 23.9158 24.2087C23.9409 24.2441 23.986 24.2592 24.0274 24.2466C26.6271 23.4424 29.2632 22.2291 31.9846 20.2306C32.0084 20.213 32.0235 20.1864 32.026 20.1574C32.6894 13.2944 30.9148 7.33297 27.3219 2.04814C27.3131 2.03049 27.2981 2.01785 27.2805 2.01028ZM10.9787 16.5416C9.41101 16.5416 8.11931 15.1024 8.11931 13.3349C8.11931 11.5674 9.38596 10.1281 10.9787 10.1281C12.5839 10.1281 13.8631 11.58 13.838 13.3349C13.838 15.1024 12.5713 16.5416 10.9787 16.5416ZM21.5506 16.5416C19.983 16.5416 18.6913 15.1024 18.6913 13.3349C18.6913 11.5674 19.9579 10.1281 21.5506 10.1281C23.1558 10.1281 24.435 11.58 24.4099 13.3349C24.4099 15.1024 23.1558 16.5416 21.5506 16.5416Z" fill="#5865F2"/>
</svg>
