<svg width="493" height="408" viewBox="0 0 493 408" fill="none" xmlns="http://www.w3.org/2000/svg">
<path d="M76.7845 26.9678C48.0825 42.2298 26.6808 69.2845 14.5136 99.4341C2.34644 129.584 -1.0978 162.691 0.287386 195.174C1.28572 218.76 4.91715 242.732 15.6866 263.809C26.4561 284.887 45.1998 302.669 68.2238 307.948C108.157 317.095 146.406 287.981 187.063 283.339C238.913 277.374 287.045 311.317 338.959 316.733C399.108 322.973 461.254 285.847 484.128 229.879C492.801 208.664 496.146 184.629 489.457 162.741C482.768 140.852 464.886 121.672 442.423 117.304C424.952 113.873 407.032 119.276 389.287 121.148C371.542 123.02 350.876 119.9 341.118 104.925C335.776 96.7636 334.778 86.6181 331.833 77.3211C324.882 55.3079 306.288 37.8122 284.487 30.2249C262.686 22.6375 238.165 24.4845 216.838 33.2947C207.204 37.2631 197.695 42.704 187.275 42.7414C175.457 42.7414 171.975 35.6408 166.709 27.2923C161.443 18.9437 153.494 17.3089 143.211 15.5868C120.421 12.1097 97.1173 16.1023 76.7845 26.9678Z" fill="#33CC94"/>
<path opacity="0.9" d="M76.7845 26.9678C48.0825 42.2298 26.6808 69.2845 14.5136 99.4341C2.34644 129.584 -1.0978 162.691 0.287386 195.174C1.28572 218.76 4.91715 242.732 15.6866 263.809C26.4561 284.887 45.1998 302.669 68.2238 307.948C108.157 317.095 146.406 287.981 187.063 283.339C238.913 277.374 287.045 311.317 338.959 316.733C399.108 322.973 461.254 285.847 484.128 229.879C492.801 208.664 496.146 184.629 489.457 162.741C482.768 140.852 464.886 121.672 442.423 117.304C424.952 113.873 407.032 119.276 389.287 121.148C371.542 123.02 350.876 119.9 341.118 104.925C335.776 96.7636 334.778 86.6181 331.833 77.3211C324.882 55.3079 306.288 37.8122 284.487 30.2249C262.686 22.6375 238.165 24.4845 216.838 33.2947C207.204 37.2631 197.695 42.704 187.275 42.7414C175.457 42.7414 171.975 35.6408 166.709 27.2923C161.443 18.9437 153.494 17.3089 143.211 15.5868C120.421 12.1097 97.1173 16.1023 76.7845 26.9678Z" fill="white"/>
<path d="M242.798 407.758C376.427 407.758 484.756 401.433 484.756 393.631C484.756 385.829 376.427 379.505 242.798 379.505C109.168 379.505 0.839844 385.829 0.839844 393.631C0.839844 401.433 109.168 407.758 242.798 407.758Z" fill="#F5F5F5"/>
<path d="M190.969 3.4949H201.913C227.229 3.4949 251.508 13.5515 269.409 31.4524C287.31 49.3533 297.366 73.6321 297.366 98.9478V363.056H95.5039V98.9478C95.5039 73.6288 105.562 49.3468 123.465 31.4436C141.368 13.5404 165.65 3.48242 190.969 3.48242V3.4949Z" fill="#33CC94"/>
<g opacity="0.3">
<path d="M190.969 3.49393H201.913C227.229 3.49393 251.508 13.5505 269.409 31.4514C287.31 49.3523 297.366 73.6312 297.366 98.9468V363.055H95.5039V98.9468C95.5039 73.6278 105.562 49.3458 123.465 31.4426C141.368 13.5394 165.65 3.48145 190.969 3.48145V3.49393Z" fill="white"/>
</g>
<path opacity="0.1" d="M196.448 3.49428L100.047 164.7V208.901L220.458 10.1082C220.458 10.1082 218.025 1.17316 196.448 3.49428Z" fill="white"/>
<path opacity="0.1" d="M269.628 50.4787L103.605 319.292V363.493L285.639 70.021C285.639 70.021 282.344 50.304 269.628 50.4787Z" fill="white"/>
<path d="M297.366 100.931V363.068H286.297V98.6975C286.297 75.1988 276.963 52.6626 260.346 36.0465C243.73 19.4304 221.194 10.0956 197.696 10.0956H194.401C170.913 10.1122 148.393 19.4543 131.79 36.0686C115.188 52.6828 105.862 75.2096 105.862 98.6975V363.068H95.5039V100.931C95.5039 74.1626 106.138 48.4904 125.066 29.5621C143.994 10.6338 169.667 0 196.435 0C223.204 0 248.876 10.6338 267.804 29.5621C286.733 48.4904 297.366 74.1626 297.366 100.931Z" fill="#33CC94"/>
<path opacity="0.2" d="M297.366 100.931V363.068H286.297V98.6975C286.297 75.1988 276.963 52.6626 260.346 36.0465C243.73 19.4304 221.194 10.0956 197.696 10.0956H194.401C170.913 10.1122 148.393 19.4543 131.79 36.0686C115.188 52.6828 105.862 75.2096 105.862 98.6975V363.068H95.5039V100.931C95.5039 74.1626 106.138 48.4904 125.066 29.5621C143.994 10.6338 169.667 0 196.435 0C223.204 0 248.876 10.6338 267.804 29.5621C286.733 48.4904 297.366 74.1626 297.366 100.931Z" fill="black"/>
<path opacity="0.2" d="M286.21 350.09H105.887V362.819H286.21V350.09Z" fill="black"/>
<path opacity="0.3" d="M129.421 187.623H119.238V228.867H129.421V187.623Z" fill="black"/>
<path d="M126.876 185.077H116.693V226.321H126.876V185.077Z" fill="white"/>
<path opacity="0.8" d="M286.298 138.019H105.887V157.099H286.298V138.019Z" fill="white"/>
<path d="M241.299 162.341H166.35C163.676 162.341 161.508 164.509 161.508 167.183V211.047C161.508 213.721 163.676 215.889 166.35 215.889H241.299C243.974 215.889 246.141 213.721 246.141 211.047V167.183C246.141 164.509 243.974 162.341 241.299 162.341Z" fill="#263238"/>
<path d="M241.299 158.359H166.35C163.676 158.359 161.508 160.527 161.508 163.201V207.065C161.508 209.74 163.676 211.907 166.35 211.907H241.299C243.974 211.907 246.141 209.74 246.141 207.065V163.201C246.141 160.527 243.974 158.359 241.299 158.359Z" fill="white"/>
<path d="M233.426 159.396L202.939 139.941L173.276 159.396L172.59 158.348L202.927 138.443L234.099 158.348L233.426 159.396Z" fill="white"/>
<path d="M169.406 188.05C169.457 186.806 169.879 185.606 170.617 184.604C171.355 183.601 172.376 182.843 173.549 182.426C174.722 182.008 175.992 181.951 177.198 182.262C178.403 182.572 179.488 183.237 180.313 184.169L178.616 185.729C178.264 185.31 177.825 184.973 177.329 184.743C176.833 184.512 176.293 184.393 175.746 184.393C174.776 184.393 173.846 184.779 173.16 185.464C172.474 186.15 172.089 187.08 172.089 188.05C172.089 189.019 172.474 189.949 173.16 190.635C173.846 191.321 174.776 191.706 175.746 191.706C176.295 191.713 176.838 191.595 177.336 191.362C177.833 191.129 178.271 190.785 178.616 190.358L180.313 191.918C179.489 192.85 178.405 193.514 177.201 193.825C175.996 194.136 174.727 194.08 173.554 193.664C172.382 193.248 171.361 192.492 170.622 191.491C169.883 190.491 169.459 189.292 169.406 188.05Z" fill="#33CC94"/>
<path d="M182.098 182.297H184.743V191.581H190.471V193.728H182.098V182.297Z" fill="#33CC94"/>
<path d="M191.046 188.049C190.981 186.804 191.291 185.567 191.936 184.499C192.581 183.431 193.531 182.581 194.664 182.059C195.797 181.536 197.06 181.366 198.291 181.568C199.522 181.771 200.664 182.338 201.569 183.197C202.475 184.055 203.102 185.165 203.37 186.383C203.639 187.602 203.535 188.872 203.074 190.032C202.613 191.191 201.815 192.185 200.783 192.886C199.751 193.587 198.533 193.963 197.285 193.964C196.481 194.009 195.677 193.888 194.922 193.611C194.166 193.333 193.475 192.905 192.891 192.351C192.307 191.797 191.842 191.13 191.525 190.391C191.207 189.651 191.044 188.854 191.046 188.049ZM200.879 188.049C200.864 187.344 200.642 186.659 200.239 186.08C199.837 185.501 199.273 185.054 198.617 184.794C197.962 184.535 197.244 184.474 196.554 184.621C195.864 184.767 195.233 185.114 194.74 185.618C194.246 186.122 193.913 186.76 193.78 187.453C193.648 188.145 193.723 188.861 193.996 189.512C194.27 190.162 194.729 190.717 195.316 191.107C195.903 191.497 196.592 191.706 197.298 191.706C197.778 191.72 198.257 191.635 198.703 191.455C199.149 191.276 199.553 191.005 199.889 190.662C200.226 190.318 200.487 189.909 200.658 189.459C200.828 189.01 200.903 188.53 200.879 188.049Z" fill="#33CC94"/>
<path d="M204.648 192.605L205.547 190.608C206.639 191.394 207.945 191.829 209.291 191.856C210.863 191.856 211.499 191.332 211.499 190.608C211.499 188.462 204.848 189.934 204.848 185.691C204.848 183.745 206.42 182.122 209.665 182.122C211.055 182.097 212.425 182.446 213.633 183.133L212.822 185.142C211.86 184.577 210.769 184.267 209.653 184.244C208.08 184.244 207.481 184.843 207.481 185.492C207.481 187.601 214.133 186.141 214.133 190.346C214.133 192.255 212.548 193.89 209.278 193.89C207.641 193.938 206.027 193.49 204.648 192.605Z" fill="#33CC94"/>
<path d="M224.814 191.606V193.728H215.967V182.297H224.602V184.418H218.587V186.914H223.904V188.973H218.587V191.619L224.814 191.606Z" fill="#33CC94"/>
<path d="M226.92 182.297H232.111C235.855 182.297 238.351 184.556 238.351 188.012C238.351 191.469 235.855 193.728 232.111 193.728H226.92V182.297ZM231.974 191.556C232.464 191.598 232.958 191.537 233.424 191.377C233.889 191.218 234.317 190.963 234.679 190.63C235.041 190.297 235.33 189.893 235.528 189.442C235.726 188.991 235.828 188.504 235.828 188.012C235.828 187.52 235.726 187.033 235.528 186.583C235.33 186.132 235.041 185.727 234.679 185.394C234.317 185.061 233.889 184.807 233.424 184.647C232.958 184.488 232.464 184.427 231.974 184.468H229.565V191.556H231.974Z" fill="#33CC94"/>
<path d="M168.994 173.374L169.518 172.214C170.168 172.663 170.937 172.906 171.727 172.913C172.638 172.913 172.975 172.613 172.975 172.201C172.975 170.953 169.094 171.814 169.094 169.331C169.094 168.196 170.005 167.26 171.902 167.26C172.714 167.245 173.515 167.447 174.223 167.846L173.736 169.019C173.177 168.687 172.54 168.506 171.889 168.495C170.978 168.495 170.641 168.832 170.641 169.256C170.641 170.504 174.51 169.643 174.51 172.089C174.51 173.2 173.586 174.148 171.69 174.148C170.734 174.167 169.794 173.897 168.994 173.374Z" fill="#33CC94"/>
<path d="M175.234 170.704C175.194 169.976 175.373 169.253 175.749 168.628C176.124 168.003 176.678 167.505 177.34 167.198C178.001 166.892 178.739 166.791 179.458 166.908C180.178 167.025 180.846 167.355 181.375 167.856C181.905 168.357 182.273 169.005 182.43 169.717C182.588 170.428 182.528 171.171 182.259 171.849C181.99 172.526 181.524 173.107 180.922 173.517C180.319 173.927 179.607 174.147 178.878 174.148C178.409 174.175 177.94 174.106 177.498 173.946C177.057 173.785 176.654 173.535 176.312 173.213C175.971 172.89 175.699 172.501 175.514 172.07C175.328 171.638 175.233 171.174 175.234 170.704ZM180.962 170.704C180.952 170.294 180.822 169.896 180.587 169.56C180.352 169.224 180.023 168.965 179.641 168.815C179.26 168.664 178.843 168.63 178.442 168.716C178.041 168.802 177.674 169.004 177.388 169.298C177.101 169.591 176.907 169.962 176.831 170.365C176.755 170.768 176.799 171.185 176.958 171.562C177.117 171.94 177.384 172.263 177.725 172.49C178.067 172.717 178.468 172.838 178.878 172.838C179.153 172.836 179.424 172.78 179.676 172.67C179.928 172.561 180.156 172.402 180.345 172.203C180.533 172.003 180.68 171.768 180.775 171.51C180.871 171.253 180.913 170.978 180.9 170.704H180.962Z" fill="#33CC94"/>
<path d="M187.875 174.037L186.627 172.178H185.217V174.037H183.682V167.373H186.464C188.237 167.373 189.36 168.297 189.36 169.794C189.377 170.243 189.255 170.686 189.009 171.062C188.763 171.438 188.405 171.727 187.987 171.891L189.484 174.037H187.875ZM186.464 168.633H185.217V170.955H186.464C187.4 170.955 187.887 170.518 187.887 169.794C187.887 169.07 187.363 168.633 186.464 168.633Z" fill="#33CC94"/>
<path d="M194.873 174.037L193.626 172.178H192.203V174.037H190.668V167.373H193.551C195.335 167.373 196.446 168.297 196.446 169.794C196.464 170.243 196.341 170.686 196.095 171.062C195.849 171.438 195.492 171.727 195.073 171.891L196.571 174.037H194.873ZM193.426 168.633H192.178V170.955H193.426C194.374 170.955 194.848 170.518 194.848 169.794C194.848 169.07 194.374 168.633 193.426 168.633Z" fill="#33CC94"/>
<path d="M200.729 171.678V174.037H199.194V171.653L196.611 167.373H198.246L200.031 170.331L201.815 167.373H203.325L200.729 171.678Z" fill="#33CC94"/>
<path d="M216.741 167.373L214.57 174.037H212.91L211.425 169.519L209.915 174.037H208.268L206.084 167.373H207.681L209.179 172.053L210.751 167.373H212.186L213.709 172.09L215.256 167.373H216.741Z" fill="#33CC94"/>
<path d="M222.766 172.8V174.048H217.662V167.384H222.654V168.632H219.147V170.079H222.242V171.327H219.147V172.875L222.766 172.8Z" fill="#33CC94"/>
<path d="M225.374 167.808C225.362 168.139 225.277 168.463 225.125 168.757L224.576 170.129H223.64L224.039 168.632C223.883 168.56 223.753 168.443 223.664 168.296C223.575 168.15 223.532 167.98 223.54 167.808C223.537 167.687 223.558 167.566 223.603 167.453C223.649 167.34 223.717 167.237 223.803 167.152C223.89 167.066 223.993 167 224.107 166.956C224.221 166.912 224.342 166.892 224.464 166.897C224.585 166.892 224.705 166.912 224.818 166.956C224.931 167 225.034 167.067 225.119 167.152C225.205 167.238 225.272 167.341 225.316 167.453C225.36 167.566 225.38 167.687 225.374 167.808Z" fill="#33CC94"/>
<path d="M230.739 174.037L229.491 172.178H228.068V174.037H226.533V167.373H229.416C231.188 167.373 232.311 168.297 232.311 169.794C232.329 170.243 232.206 170.686 231.96 171.062C231.714 171.438 231.357 171.727 230.938 171.891L232.436 174.037H230.739ZM229.291 168.633H228.043V170.955H229.291C230.227 170.955 230.714 170.518 230.714 169.794C230.714 169.07 230.227 168.633 229.291 168.633Z" fill="#33CC94"/>
<path d="M238.652 172.8V174.048H233.498V167.384H238.49V168.632H234.983V170.079H238.078V171.327H234.983V172.875L238.652 172.8Z" fill="#33CC94"/>
<path d="M292.749 161.405C293.555 161.405 294.209 160.752 294.209 159.945C294.209 159.139 293.555 158.485 292.749 158.485C291.943 158.485 291.289 159.139 291.289 159.945C291.289 160.752 291.943 161.405 292.749 161.405Z" fill="white"/>
<path d="M276.051 94.3057C276.232 96.1007 275.971 97.9128 275.29 99.5835C274.609 101.254 273.529 102.733 272.145 103.89C271.334 104.564 270.423 105.138 269.649 105.824C269.4 106.077 269.207 106.381 269.084 106.714C268.962 107.048 268.912 107.404 268.938 107.758C268.964 108.112 269.065 108.457 269.235 108.769C269.405 109.081 269.64 109.354 269.923 109.568C270.917 110.388 271.65 111.481 272.032 112.712C272.302 113.627 272.373 114.589 272.242 115.534C272.111 116.478 271.78 117.384 271.271 118.191C269.836 120.412 267.627 121.735 266.28 123.969C266.202 124.125 266.159 124.297 266.152 124.471C266.145 124.646 266.175 124.82 266.24 124.982C266.304 125.145 266.402 125.292 266.528 125.414C266.653 125.536 266.802 125.63 266.966 125.691C267.54 125.878 268.214 125.915 268.613 126.365C268.804 126.649 268.918 126.977 268.944 127.318C268.97 127.659 268.908 128.001 268.763 128.311C268.378 129.485 267.742 130.56 266.899 131.463C266.057 132.366 265.028 133.075 263.884 133.54C262.452 134.152 260.946 134.572 259.404 134.788C260.596 134.374 261.588 133.523 262.178 132.407C262.769 131.291 262.914 129.992 262.586 128.773C262.144 127.687 261.529 126.679 260.764 125.791C259.877 124.806 259.326 123.565 259.191 122.246C259.203 121.727 259.356 121.221 259.632 120.781C259.909 120.342 260.3 119.985 260.764 119.751C261.217 119.446 261.603 119.053 261.9 118.595C262.197 118.137 262.397 117.623 262.489 117.085C262.581 116.547 262.563 115.996 262.436 115.466C262.309 114.935 262.076 114.436 261.75 113.998C261.069 113.371 260.431 112.7 259.84 111.989C258.83 110.341 259.716 108.245 260.614 106.498C261.737 104.318 262.869 102.134 264.008 99.9462C264.89 97.9025 266.162 96.0502 267.752 94.4928C268.573 93.7241 269.6 93.21 270.707 93.0128C271.815 92.8157 272.956 92.944 273.992 93.3822C274.69 93.1201 275.527 93.7191 276.051 94.3057Z" fill="#263238"/>
<path d="M244.556 149.562C244.556 149.562 222.929 141.013 221.195 141.176C218.562 141.425 217.127 144.27 216.203 146.741C216.203 146.741 237.418 158.222 246.153 159.458C252.755 160.393 270.849 153.755 275.941 150.834C278.532 149.523 280.678 147.474 282.105 144.944C283.353 142.361 282.105 138.642 280.184 136.533C275.729 131.729 270.799 137.557 267.542 140.19C262.501 144.27 251.007 150.348 244.556 149.562Z" fill="#263238"/>
<path d="M222.367 141.875C222.367 141.875 215.553 134.388 215.254 134.887C214.954 135.386 209.963 143.236 210.449 143.535L218.174 148.053C218.174 148.053 222.716 147.341 222.367 141.875Z" fill="#FFB573"/>
<path d="M210.447 143.584L215.252 134.936L206.055 134.812L204.645 140.939L210.447 143.584Z" fill="#FFB573"/>
<path d="M279.685 384.93C283.528 387.426 285.924 387.426 288.308 383.083C291.652 355.205 293.736 321.374 289.556 305.825C286.922 296.154 272.696 290.051 274.281 311.503C275.142 323.67 279.56 374.834 279.685 384.93Z" fill="#FFB573"/>
<path d="M274.191 307.597C275.439 310.992 282.589 313.251 286.67 309.819C299.486 298.962 308.721 246.787 312.702 232.323C313.812 228.28 314.935 223.962 313.687 219.957C312.115 214.902 307.186 211.633 302.219 209.811C296.042 207.552 284.873 196.421 284.873 196.421C277.398 218.521 270.285 296.691 274.191 307.597Z" fill="#33CC94"/>
<path d="M274.191 307.597C275.439 310.992 282.589 313.251 286.67 309.819C299.486 298.962 308.721 246.787 312.702 232.323C313.812 228.28 314.935 223.962 313.687 219.957C312.115 214.902 307.186 211.633 302.219 209.811C296.042 207.552 284.873 196.421 284.873 196.421C277.398 218.521 270.285 296.691 274.191 307.597Z" fill="#33CC94"/>
<path opacity="0.6" d="M274.191 307.597C275.439 310.992 282.589 313.251 286.67 309.819C299.486 298.962 308.721 246.787 312.702 232.323C313.812 228.28 314.935 223.962 313.687 219.957C312.115 214.902 307.186 211.633 302.219 209.811C296.042 207.552 284.873 196.421 284.873 196.421C277.398 218.521 270.285 296.691 274.191 307.597Z" fill="black"/>
<path opacity="0.2" d="M315.698 247.949H323.735L319.292 217.013C315.199 210.773 285.399 211.422 289.068 216.252C299.214 229.692 305.466 240.686 315.698 247.949Z" fill="black"/>
<path d="M307.512 232.735C312.679 220.655 321.414 219.258 334.405 217.286C334.679 205.855 323.51 194.761 317.159 190.394H284.838C276.838 214.928 288.032 222.427 307.512 232.735Z" fill="#33CC94"/>
<path d="M318.745 195.948L314.727 196.884C309.881 198 304.924 198.561 299.952 198.556C295.53 198.552 291.12 198.109 286.786 197.233C286.786 197.233 275.617 182.146 272.809 177.554C270.598 174.275 268.882 170.688 267.718 166.909C265.522 158.248 266.894 143.61 272.423 136.734C276.042 132.192 284.902 130.395 297.206 135.025C297.93 135.299 298.691 135.611 299.452 135.936C302.046 137.072 304.572 138.36 307.015 139.792C320.205 147.529 318.745 195.948 318.745 195.948Z" fill="#263238"/>
<path d="M282.003 132.392C278.422 135.421 275.746 139.379 274.269 143.831C272.792 148.283 272.57 153.055 273.63 157.624C273.936 158.487 274.416 159.277 275.04 159.946L276.749 157.762C275.74 154.143 275.595 150.337 276.328 146.651C277.061 142.966 278.65 139.505 280.967 136.547C282.385 134.984 283.894 133.504 285.485 132.117C284.954 131.776 284.326 131.618 283.698 131.667C283.069 131.717 282.473 131.971 282.003 132.392Z" fill="#33CC94"/>
<path d="M298.888 136.597C296.574 139.556 294.986 143.017 294.254 146.702C293.521 150.386 293.664 154.192 294.67 157.811C294.121 158.535 293.51 159.271 292.961 160.008C292.339 159.33 291.856 158.537 291.538 157.674C290.637 153.728 290.68 149.625 291.662 145.698C292.644 141.771 294.539 138.132 297.191 135.074C297.915 135.349 298.676 135.661 299.437 135.985C299.25 136.147 299.075 136.372 298.888 136.597Z" fill="#33CC94"/>
<path d="M270.574 144.234C275.566 144.534 277.937 148.34 279.11 153.182C288.033 146.368 293.76 143.548 301.473 143.198C299.775 139.991 298.016 136.684 295.233 134.376C286.298 126.901 274.904 136.26 270.574 144.234Z" fill="white"/>
<path d="M277.56 96.2015C275.302 93.7806 274.778 91.6466 277.373 89.6001C277.373 89.6001 280.306 87.8779 282.639 88.3521C284.368 88.5731 286.015 89.2206 287.431 90.2365C291.006 90.9684 294.45 92.2302 297.652 93.9802C300.78 95.7791 303.178 98.6188 304.428 102.004C304.852 103.252 304.94 104.924 303.879 105.748C310.63 109.904 307.535 116.068 307.011 117.166C305.826 119.662 302.419 120.124 300.347 121.996C297.09 124.928 299.661 130.182 301.433 130.931C290.688 133.152 287.993 132.666 282.452 130.931C275.302 129.808 274.965 117.553 277.086 111.975C278.247 108.893 280.63 106.122 280.555 102.84C280.439 100.327 279.367 97.9525 277.56 96.2015Z" fill="#263238"/>
<path d="M291.102 117.678C290.777 121.621 290.715 127.811 292.175 132.278C292.744 133.918 292.787 135.694 292.297 137.359C291.806 139.023 290.808 140.493 289.442 141.563C288.194 142.474 286.859 143.472 285.274 144.52C284.662 144.941 283.967 145.225 283.236 145.353C282.505 145.481 281.755 145.451 281.036 145.264C280.318 145.077 279.648 144.738 279.072 144.269C278.497 143.801 278.028 143.214 277.699 142.549C277.598 142.331 277.515 142.106 277.449 141.875C277.256 141.165 277.315 140.411 277.615 139.74C277.916 139.069 278.439 138.522 279.097 138.193C283.739 135.847 283.053 131.692 281.667 127.848L291.102 117.678Z" fill="#FFB573"/>
<path opacity="0.2" d="M287.235 121.907L281.619 127.922C281.99 128.891 282.282 129.889 282.493 130.905C284.789 130.293 288.096 127.785 288.058 125.302C287.985 124.131 287.707 122.981 287.235 121.907Z" fill="black"/>
<path d="M295.796 108.806C293.699 117.84 293.013 121.721 287.609 125.627C280.846 130.519 273.882 129.371 270.051 122.383C268.743 119.863 268.119 117.045 268.242 114.209C268.628 101.243 271.861 95.4903 280.721 93.4687C282.824 92.9869 285.015 93.0513 287.086 93.6557C289.157 94.2602 291.039 95.3846 292.552 96.9219C294.066 98.4592 295.161 100.358 295.733 102.438C296.305 104.518 296.335 106.71 295.821 108.806H295.796Z" fill="#FFB573"/>
<path d="M290.238 122.52C290.764 121.438 291.004 120.239 290.937 119.038C290.775 118.439 293.782 114.72 294.306 114.383C294.685 114.17 295.131 114.107 295.554 114.209C295.916 114.371 295.941 114.858 295.929 115.244C295.866 116.605 293.433 122.57 291.698 122.807C290.401 122.981 291.711 127.549 290.238 122.52Z" fill="#263238"/>
<path d="M283.626 97.7246C285.21 99.5111 286.344 101.65 286.933 103.964C287.536 106.282 287.954 108.644 288.181 111.027C289.174 111.658 289.98 112.542 290.518 113.588C291.055 114.635 291.304 115.806 291.238 116.98C291.604 115.792 292.425 114.798 293.521 114.213C294.618 113.629 295.901 113.502 297.091 113.86C298.055 111.394 298.367 108.721 297.996 106.099C297.626 103.478 296.586 100.996 294.976 98.8932C293.367 96.7908 291.242 95.1388 288.808 94.0969C286.374 93.055 283.712 92.6583 281.08 92.9451C279.832 93.0949 278.347 93.5941 278.035 94.8295C278.959 95.3701 279.961 95.7657 281.005 96.0025C282.007 96.3523 282.907 96.9438 283.626 97.7246Z" fill="#263238"/>
<path d="M277.137 119.226C276.786 119.35 276.428 119.451 276.064 119.525C276.036 119.533 276.008 119.535 275.98 119.532C275.952 119.528 275.926 119.519 275.901 119.505C275.877 119.491 275.855 119.473 275.838 119.451C275.821 119.428 275.809 119.403 275.801 119.376C275.797 119.319 275.814 119.262 275.848 119.216C275.883 119.17 275.933 119.138 275.989 119.126C276.907 118.957 277.776 118.586 278.534 118.04C279.292 117.494 279.918 116.787 280.369 115.969C280.396 115.916 280.441 115.874 280.496 115.851C280.55 115.828 280.612 115.826 280.668 115.844C280.695 115.854 280.719 115.869 280.739 115.888C280.759 115.907 280.775 115.931 280.786 115.956C280.796 115.982 280.801 116.01 280.8 116.038C280.799 116.066 280.793 116.093 280.781 116.119C280.005 117.58 278.702 118.69 277.137 119.226Z" fill="#263238"/>
<path d="M274.468 111.4C273.91 113.168 273.108 114.848 272.084 116.392C272.483 116.644 272.932 116.805 273.399 116.865C273.867 116.926 274.342 116.883 274.792 116.741L274.468 111.4Z" fill="#ED893E"/>
<path d="M296.743 116.393C295.949 118.002 294.549 119.232 292.85 119.812C290.591 120.561 289.356 118.564 289.892 116.38C290.366 114.408 292.113 111.65 294.435 111.85C294.936 111.908 295.415 112.09 295.829 112.378C296.243 112.666 296.579 113.052 296.808 113.502C297.036 113.952 297.15 114.451 297.139 114.955C297.128 115.46 296.992 115.953 296.743 116.393Z" fill="#FFB573"/>
<path d="M273.595 383.084C272.197 382.984 270.874 382.672 270.512 382.011C270.415 381.836 270.374 381.635 270.397 381.436C270.419 381.237 270.503 381.049 270.637 380.9C270.738 380.757 270.867 380.635 271.018 380.545C271.168 380.455 271.336 380.397 271.511 380.376C273.358 380.039 276.939 382.51 277.089 382.623C277.132 382.653 277.165 382.695 277.185 382.743C277.205 382.792 277.211 382.845 277.201 382.897C277.19 382.95 277.163 382.998 277.122 383.034C277.082 383.071 277.031 383.092 276.977 383.097C275.851 383.199 274.719 383.194 273.595 383.084ZM272.072 380.826C271.902 380.813 271.731 380.813 271.561 380.826C271.351 380.863 271.163 380.979 271.036 381.15C270.824 381.449 270.874 381.612 270.924 381.712C271.373 382.46 274.119 382.71 276.14 382.61C274.918 381.751 273.534 381.148 272.072 380.838V380.826Z" fill="#33CC94"/>
<path d="M276.9 383.085H276.787C275.539 382.386 273.143 379.828 273.455 378.63C273.524 378.42 273.663 378.24 273.85 378.121C274.037 378.003 274.259 377.953 274.479 377.981C274.733 377.962 274.988 377.996 275.228 378.08C275.469 378.163 275.689 378.296 275.876 378.468C277.124 379.716 277.199 382.661 277.199 382.786C277.209 382.831 277.207 382.879 277.191 382.923C277.176 382.967 277.148 383.006 277.112 383.035L276.9 383.085ZM274.641 378.468H274.491C274.03 378.468 273.992 378.668 273.967 378.73C273.73 379.416 275.39 381.426 276.65 382.362C276.638 381.12 276.242 379.912 275.515 378.905C275.406 378.777 275.272 378.672 275.122 378.597C274.972 378.522 274.808 378.478 274.641 378.468Z" fill="#33CC94"/>
<path d="M278.808 381.238L289.316 381.599C289.532 381.606 289.739 381.688 289.901 381.832C290.063 381.976 290.17 382.172 290.202 382.386L291.961 391.121C292.074 392.02 290.364 392.968 290.264 392.968C283.812 393.367 269.985 393.18 265.431 392.968C260.876 392.756 260.526 388.176 262.411 387.864C270.872 386.491 274.166 384.12 276.961 381.886C277.471 381.442 278.132 381.21 278.808 381.238Z" fill="#263238"/>
<path d="M203.41 140.229L201.9 139.667L203.423 138.993L216.177 139.105L216.164 140.341L203.41 140.229Z" fill="#263238"/>
<path d="M217.662 142.062L214.417 138.979H209.812L209.95 140.053C210.025 140.251 210.142 140.43 210.293 140.579C210.443 140.727 210.624 140.841 210.823 140.914C212.271 141.6 215.69 143.559 215.69 143.559L217.662 142.062Z" fill="#FFB573"/>
<path opacity="0.2" d="M274.191 307.598L274.528 315.484L291.525 317.831C291.525 317.831 290.913 310.855 290.352 309.582C289.79 308.309 274.191 307.598 274.191 307.598Z" fill="black"/>
<path d="M270.811 303.68C270.699 303.68 271.71 312.103 271.71 312.103L293.286 311.903L293.361 304.179L270.811 303.68Z" fill="#33CC94"/>
<path opacity="0.6" d="M270.811 303.68C270.699 303.68 271.71 312.103 271.71 312.103L293.286 311.903L293.361 304.179L270.811 303.68Z" fill="white"/>
<path d="M279.734 110.192C279.734 110.941 279.284 111.54 278.785 111.527C278.286 111.515 277.924 110.891 277.962 110.129C277.999 109.368 278.411 108.782 278.898 108.794C279.384 108.807 279.759 109.431 279.734 110.192Z" fill="#263238"/>
<path d="M271.558 109.878C271.558 110.627 271.109 111.226 270.622 111.214C270.136 111.201 269.761 110.565 269.786 109.816C269.811 109.067 270.236 108.468 270.722 108.481C271.209 108.493 271.596 109.117 271.558 109.878Z" fill="#263238"/>
<path d="M270.937 108.532L269.152 107.945C269.152 107.945 270.076 109.43 270.937 108.532Z" fill="#263238"/>
<path d="M281.193 107.108C281.256 107.096 281.315 107.07 281.367 107.033C281.436 106.963 281.474 106.869 281.474 106.771C281.474 106.673 281.436 106.579 281.367 106.509C280.939 105.969 280.386 105.54 279.755 105.26C279.125 104.98 278.437 104.856 277.749 104.899C277.651 104.911 277.563 104.962 277.502 105.039C277.442 105.116 277.413 105.213 277.424 105.311C277.429 105.358 277.443 105.404 277.466 105.445C277.488 105.487 277.519 105.523 277.557 105.553C277.594 105.582 277.637 105.603 277.683 105.615C277.729 105.627 277.777 105.63 277.823 105.623C278.394 105.599 278.963 105.709 279.483 105.946C280.003 106.182 280.461 106.537 280.818 106.983C280.861 107.039 280.919 107.081 280.986 107.103C281.053 107.126 281.125 107.127 281.193 107.108Z" fill="#263238"/>
<path d="M268.614 106.11C268.677 106.101 268.737 106.075 268.788 106.035C269.223 105.671 269.739 105.416 270.292 105.29C270.845 105.164 271.421 105.171 271.97 105.311C272.063 105.344 272.165 105.338 272.253 105.296C272.342 105.254 272.411 105.179 272.445 105.087C272.472 104.994 272.463 104.894 272.419 104.808C272.375 104.722 272.299 104.656 272.208 104.625C271.541 104.447 270.841 104.43 270.166 104.575C269.491 104.721 268.861 105.024 268.327 105.461C268.288 105.49 268.255 105.525 268.23 105.567C268.205 105.608 268.189 105.654 268.182 105.701C268.175 105.749 268.177 105.798 268.189 105.844C268.201 105.891 268.222 105.935 268.252 105.973C268.29 106.031 268.345 106.077 268.41 106.103C268.474 106.13 268.545 106.137 268.614 106.123V106.11Z" fill="#263238"/>
<path d="M279.107 108.844L277.322 108.27C277.322 108.27 278.196 109.705 279.107 108.844Z" fill="#263238"/>
<path d="M389.875 357.577C389.816 358.317 389.602 359.035 389.248 359.687C388.894 360.339 388.407 360.909 387.82 361.362C387.232 361.814 386.556 362.139 385.836 362.314C385.115 362.49 384.366 362.513 383.636 362.382L337.089 314.162L331.897 308.984L331.773 308.796C331.394 308.25 331.052 307.679 330.749 307.087C326.394 298.788 332.097 292.748 339.809 295.856C340.475 296.132 341.125 296.444 341.756 296.791C344.006 298.085 346.036 299.728 347.771 301.658C348.922 302.905 350.005 304.213 351.015 305.577C351.577 306.301 352.114 307.049 352.675 307.786C363.133 322.112 379.954 346.146 389.875 357.577Z" fill="#FFB573"/>
<path d="M312.329 256.682C316.613 273.059 322.034 289.117 328.552 304.74C328.552 304.74 347.832 305.002 348.107 299.448C348.494 291.512 341.368 164.599 309.06 205.506C302.521 213.704 309.409 245.801 312.329 256.682Z" fill="#33CC94"/>
<path opacity="0.6" d="M312.329 256.682C316.613 273.059 322.034 289.117 328.552 304.74C328.552 304.74 347.832 305.002 348.107 299.448C348.494 291.512 341.368 164.599 309.06 205.506C302.521 213.704 309.409 245.801 312.329 256.682Z" fill="black"/>
<path d="M295.033 157.824C300.087 170.778 317.807 170.303 317.807 170.303C319.417 181.535 335.752 251.031 335.752 251.031C301.734 280.806 273.843 262.175 274.829 260.44C281.53 211.597 275.154 182.346 270.773 174.072C273.269 173.111 273.818 157.849 273.818 157.849L295.033 157.824Z" fill="#33CC94"/>
<path d="M380.166 366.786C379.13 367.959 377.957 368.933 377.133 368.808C376.909 368.779 376.699 368.68 376.534 368.525C376.368 368.371 376.255 368.169 376.21 367.947C376.15 367.759 376.129 367.561 376.151 367.366C376.172 367.17 376.235 366.981 376.335 366.811C377.283 364.939 381.913 363.417 382.113 363.355C382.169 363.338 382.23 363.338 382.287 363.353C382.344 363.368 382.396 363.399 382.437 363.442C382.464 363.494 382.479 363.552 382.479 363.61C382.479 363.669 382.464 363.727 382.437 363.779C381.776 364.851 381.016 365.858 380.166 366.786ZM377.121 366.624C376.992 366.762 376.883 366.918 376.796 367.086C376.735 367.186 376.697 367.298 376.684 367.414C376.671 367.531 376.684 367.649 376.722 367.76C376.846 368.159 377.021 368.221 377.146 368.246C378.119 368.346 380.191 366.075 381.464 364.191C379.872 364.734 378.401 365.581 377.133 366.686L377.121 366.624Z" fill="#33CC94"/>
<path d="M382.385 363.841L382.285 363.916C380.812 364.565 376.919 364.964 376.045 363.916C375.902 363.714 375.835 363.468 375.855 363.221C375.876 362.975 375.983 362.743 376.158 362.568C376.317 362.332 376.521 362.13 376.759 361.973C376.997 361.817 377.263 361.71 377.543 361.657C379.54 361.358 382.16 363.317 382.285 363.392C382.33 363.414 382.368 363.448 382.396 363.49C382.425 363.531 382.442 363.579 382.447 363.629L382.385 363.841ZM376.744 362.73L376.594 362.83C376.307 363.242 376.432 363.404 376.47 363.467C376.919 364.153 379.839 364.028 381.524 363.529C380.408 362.696 379.06 362.233 377.668 362.206C377.301 362.264 376.97 362.461 376.744 362.755V362.73Z" fill="#33CC94"/>
<path d="M381.536 360.26L387.564 354.132C389.386 353.621 397.422 359.261 397.422 359.261C398.296 359.761 397.984 361.944 397.909 362.019C393.915 368.047 386.765 376.882 383.47 380.738C380.176 384.594 375.883 381.874 376.881 379.989C381.374 371.516 381.499 366.986 381.374 362.98C381.324 362.206 381.062 360.796 381.536 360.26Z" fill="#263238"/>
<path opacity="0.2" d="M351.012 305.527L337.098 314.163L331.906 308.984L331.732 308.747L330.559 307.124L330.708 307.037C332.218 306.101 344.236 298.701 345.321 299.45C346.195 300.073 347.002 300.783 347.73 301.571C348.893 302.831 349.988 304.151 351.012 305.527Z" fill="black"/>
<path d="M325.544 301.221C325.431 301.221 329.125 310.056 329.125 310.056L352.436 303.168L350.115 294.77L325.544 301.221Z" fill="#33CC94"/>
<path opacity="0.6" d="M325.544 301.221C325.431 301.221 329.125 310.056 329.125 310.056L352.436 303.168L350.115 294.77L325.544 301.221Z" fill="white"/>
<path d="M275.065 97.6999C276.529 98.5937 278.126 99.2507 279.795 99.6467C280.626 99.8565 281.399 100.25 282.058 100.799C282.717 101.347 283.244 102.037 283.601 102.816C284.038 104.202 283.601 105.699 283.601 107.134C283.712 108.273 284.183 109.347 284.946 110.2C285.709 111.053 286.724 111.64 287.844 111.876C287.275 112.785 286.822 113.762 286.496 114.784C286.314 115.253 286.232 115.756 286.256 116.258C286.279 116.761 286.408 117.254 286.633 117.704C287.16 118.401 287.762 119.038 288.43 119.601C288.758 119.889 288.988 120.272 289.088 120.697C289.189 121.122 289.155 121.567 288.992 121.972C289.537 121.312 289.89 120.514 290.011 119.666C290.132 118.818 290.017 117.954 289.678 117.167C289.391 116.693 292.049 112.176 292.037 107.446C291.982 106.568 291.62 105.738 291.013 105.1C290.47 104.634 289.849 104.267 289.179 104.014C288.843 103.887 288.539 103.688 288.287 103.431C288.035 103.175 287.841 102.867 287.719 102.529C287.64 101.98 287.74 101.42 288.006 100.932C288.231 100.42 288.842 99.7964 288.505 99.3596C285.385 95.1791 281.417 94.3056 278.235 92.9329C277.46 92.5337 276.609 92.304 275.739 92.259C275.311 92.2337 274.885 92.3247 274.504 92.5225C274.124 92.7203 273.805 93.0173 273.58 93.3822C273.362 94.1482 273.372 94.9611 273.61 95.7214C273.847 96.4817 274.301 97.1563 274.915 97.6625L275.065 97.6999Z" fill="#263238"/>
<path d="M278.047 160.144C278.047 160.432 277.961 160.715 277.801 160.955C277.641 161.195 277.413 161.382 277.146 161.493C276.879 161.603 276.585 161.632 276.302 161.576C276.019 161.519 275.759 161.38 275.555 161.176C275.35 160.972 275.211 160.712 275.155 160.428C275.099 160.145 275.128 159.852 275.238 159.585C275.349 159.318 275.536 159.09 275.776 158.93C276.016 158.769 276.298 158.684 276.587 158.684C276.974 158.684 277.346 158.837 277.619 159.111C277.893 159.385 278.047 159.756 278.047 160.144Z" fill="white"/>
<path d="M248.399 133.839C249.035 133.839 249.572 133.989 249.647 134.226L250.745 163.589L248.324 163.676L247.301 134.313C247.301 134.076 247.825 133.864 248.461 133.839H248.399Z" fill="#263238"/>
<path d="M252.791 134.441L244.036 134.755C242.314 134.816 240.968 136.262 241.03 137.984L241.115 140.366C241.176 142.088 242.622 143.434 244.344 143.372L253.099 143.059C254.821 142.997 256.167 141.551 256.105 139.829L256.02 137.447C255.958 135.726 254.512 134.38 252.791 134.441Z" fill="#33CC94"/>
<path d="M308.984 145.095C303.743 142.599 305.877 141.276 293.56 157.574C292.587 158.822 284.9 167.944 284.9 167.944L260.528 156.576C260.528 156.576 259.28 160.818 257.508 162.653C257.508 162.653 270.424 171.638 281.019 177.803C291.613 183.967 298.14 172.025 301.671 167.507C308.872 158.298 316.684 148.789 308.984 145.095Z" fill="#263238"/>
<path d="M261.338 156.938C261.338 156.938 252.852 151.509 252.69 151.946C252.528 152.383 249.869 160.107 250.344 160.257C250.818 160.407 258.979 163.402 258.979 163.402C260.068 162.771 260.9 161.779 261.331 160.597C261.762 159.416 261.765 158.121 261.338 156.938Z" fill="#FFB573"/>
<path d="M250.321 160.294L252.667 151.982L246.789 153.293C246.226 153.42 245.725 153.737 245.37 154.193C245.015 154.648 244.828 155.212 244.843 155.789V157.236C244.849 157.809 245.052 158.362 245.418 158.803C245.783 159.244 246.29 159.545 246.852 159.657L250.321 160.294Z" fill="#FFB573"/>
<path opacity="0.2" d="M281.49 196.421C281.49 196.421 282.738 214.004 282.638 218.11C282.638 218.11 299.073 226.321 299.435 225.086C299.797 223.85 310.604 216.101 310.604 216.101L306.024 194.287C306.024 194.287 294.394 203.884 281.49 196.421Z" fill="black"/>
</svg>
