<svg width="50" height="50" viewBox="0 0 50 50" fill="none" xmlns="http://www.w3.org/2000/svg">
<rect width="50" height="50" rx="8" fill="#E9FFF7"/>
<g clip-path="url(#clip0_5206_9349)">
<path d="M15 26.6667C11.3334 26.6667 8.33337 29.6667 8.33337 33.3333C8.33337 37 11.3334 40 15 40C18.6667 40 21.6667 37 21.6667 33.3333C21.6667 29.6667 18.6667 26.6667 15 26.6667ZM25 10C21.3334 10 18.3334 13 18.3334 16.6667C18.3334 20.3333 21.3334 23.3333 25 23.3333C28.6667 23.3333 31.6667 20.3333 31.6667 16.6667C31.6667 13 28.6667 10 25 10ZM35 26.6667C31.3334 26.6667 28.3334 29.6667 28.3334 33.3333C28.3334 37 31.3334 40 35 40C38.6667 40 41.6667 37 41.6667 33.3333C41.6667 29.6667 38.6667 26.6667 35 26.6667Z" fill="#33CC94"/>
</g>
<defs>
<clipPath id="clip0_5206_9349">
<rect width="40" height="40" fill="white" transform="translate(5 5)"/>
</clipPath>
</defs>
</svg>
