<svg width="32" height="32" viewBox="0 0 32 32" fill="none" xmlns="http://www.w3.org/2000/svg">
<circle cx="16" cy="16" r="16" fill="#33CC94"/>
<g clip-path="url(#clip0_7278_88346)">
<path d="M22.2218 12.7373V11.161C22.2218 10.4005 21.5995 9.77832 20.8391 9.77832H11.1601C10.3927 9.77832 9.77734 10.4005 9.77734 11.161V20.84C9.77734 21.6005 10.3927 22.2228 11.1601 22.2228H20.8391C21.5995 22.2228 22.2218 21.6005 22.2218 20.84V19.2638C22.6297 19.0218 22.9131 18.5862 22.9131 18.0746V13.9265C22.9131 13.4149 22.6297 12.9793 22.2218 12.7373ZM21.5304 13.9265V18.0746H16.6909V13.9265H21.5304ZM11.1601 20.84V11.161H20.8391V12.5438H16.6909C15.9304 12.5438 15.3082 13.166 15.3082 13.9265V18.0746C15.3082 18.8351 15.9304 19.4573 16.6909 19.4573H20.8391V20.84H11.1601Z" fill="white"/>
<path d="M18.7636 17.037C19.3363 17.037 19.8006 16.5727 19.8006 15.9999C19.8006 15.4272 19.3363 14.9629 18.7636 14.9629C18.1909 14.9629 17.7266 15.4272 17.7266 15.9999C17.7266 16.5727 18.1909 17.037 18.7636 17.037Z" fill="white"/>
</g>
<defs>
<clipPath id="clip0_7278_88346">
<rect width="16.5926" height="16.5926" fill="white" transform="translate(7.70312 7.7041)"/>
</clipPath>
</defs>
</svg>
