<svg width="116" height="116" viewBox="0 0 116 116" fill="none" xmlns="http://www.w3.org/2000/svg">
<path d="M57.9998 35.6426C47.7625 35.6426 39.4343 43.971 39.4343 54.208V69.8567C39.4343 71.7335 40.9559 73.2551 42.8328 73.2551H47.0178V92.126C47.0178 94.0028 48.5394 95.5244 50.4163 95.5244H65.5835C67.4603 95.5244 68.9819 94.0028 68.9819 92.126V73.2551H73.167C75.0438 73.2551 76.5654 71.7335 76.5654 69.8567V54.208C76.5652 43.9712 68.237 35.6426 57.9998 35.6426Z" fill="#2E68F0"/>
<path d="M58 42.4395C64.0652 42.4395 68.9819 37.5227 68.9819 31.4575C68.9819 25.3924 64.0652 20.4756 58 20.4756C51.9348 20.4756 47.0181 25.3924 47.0181 31.4575C47.0181 37.5227 51.9348 42.4395 58 42.4395Z" fill="#FFDBD6"/>
<path d="M99.0123 16.9877C88.0574 6.03313 73.4923 0 58 0C42.5077 0 27.9426 6.03313 16.9877 16.9877C6.03313 27.9426 0 42.5077 0 58C0 73.4923 6.03313 88.0574 16.9877 99.0123C27.9426 109.967 42.5077 116 58 116C73.4923 116 88.0574 109.967 99.0123 99.0123C109.967 88.0574 116 73.4923 116 58C116 42.5077 109.967 27.9426 99.0123 16.9877ZM6.79688 58C6.79688 29.7665 29.7665 6.79688 58 6.79688C70.8964 6.79688 82.6928 11.5914 91.7053 19.4889L19.4887 91.705C11.5912 82.6926 6.79688 70.8964 6.79688 58ZM58 109.203C45.1036 109.203 33.3072 104.409 24.2948 96.5111L96.5111 24.295C104.409 33.3074 109.203 45.1036 109.203 58C109.203 86.2335 86.2335 109.203 58 109.203Z" fill="#EB5757"/>
<path d="M91.7052 19.4889L58 53.1939V62.8061L96.5111 24.295C104.409 33.3074 109.203 45.1036 109.203 58C109.203 86.2335 86.2335 109.203 58 109.203V116C73.4923 116 88.0574 109.967 99.0123 99.0123C109.967 88.0574 116 73.4923 116 58C116 42.5077 109.967 27.9426 99.0123 16.9877C88.0574 6.03313 73.4923 0 58 0V6.79688C70.8964 6.79688 82.6928 11.5914 91.7052 19.4889Z" fill="#EB5757"/>
</svg>
