<svg width="27" height="26" viewBox="0 0 27 26" fill="none" xmlns="http://www.w3.org/2000/svg">
<path fill-rule="evenodd" clip-rule="evenodd" d="M7.05357 12.8911C7.05357 9.23507 10.0173 6.27134 13.6733 6.27134C17.3293 6.27134 20.293 9.23507 20.293 12.8911C20.293 16.5471 17.3293 19.5108 13.6733 19.5108C10.0173 19.5108 7.05357 16.5471 7.05357 12.8911ZM13.6733 17.1881C11.3001 17.1881 9.37628 15.2643 9.37628 12.8911C9.37628 10.5179 11.3001 8.59405 13.6733 8.59405C16.0465 8.59405 17.9703 10.5179 17.9703 12.8911C17.9703 15.2643 16.0465 17.1881 13.6733 17.1881Z" fill="url(#paint0_linear_771_31291)"/>
<path fill-rule="evenodd" clip-rule="evenodd" d="M7.05357 12.8911C7.05357 9.23507 10.0173 6.27134 13.6733 6.27134C17.3293 6.27134 20.293 9.23507 20.293 12.8911C20.293 16.5471 17.3293 19.5108 13.6733 19.5108C10.0173 19.5108 7.05357 16.5471 7.05357 12.8911ZM13.6733 17.1881C11.3001 17.1881 9.37628 15.2643 9.37628 12.8911C9.37628 10.5179 11.3001 8.59405 13.6733 8.59405C16.0465 8.59405 17.9703 10.5179 17.9703 12.8911C17.9703 15.2643 16.0465 17.1881 13.6733 17.1881Z" fill="url(#paint1_radial_771_31291)"/>
<path d="M20.5546 7.55671C21.4089 7.55671 22.1015 6.86416 22.1015 6.0098C22.1015 5.15545 21.4089 4.46285 20.5546 4.46285C19.7003 4.46285 19.0077 5.15545 19.0077 6.0098C19.0077 6.86416 19.7003 7.55671 20.5546 7.55671Z" fill="url(#paint2_linear_771_31291)"/>
<path d="M20.5546 7.55671C21.4089 7.55671 22.1015 6.86416 22.1015 6.0098C22.1015 5.15545 21.4089 4.46285 20.5546 4.46285C19.7003 4.46285 19.0077 5.15545 19.0077 6.0098C19.0077 6.86416 19.7003 7.55671 20.5546 7.55671Z" fill="url(#paint3_radial_771_31291)"/>
<path fill-rule="evenodd" clip-rule="evenodd" d="M13.6733 0C10.1723 0 9.7333 0.0148397 8.35833 0.0775756C6.98623 0.140158 6.04913 0.358096 5.22916 0.676791C4.38146 1.00618 3.66255 1.44697 2.94585 2.16362C2.2292 2.88033 1.78841 3.59923 1.45902 4.44693C1.14032 5.2669 0.922385 6.204 0.859802 7.5761C0.797066 8.95107 0.782227 9.39007 0.782227 12.8911C0.782227 16.3921 0.797066 16.8311 0.859802 18.2061C0.922385 19.5782 1.14032 20.5153 1.45902 21.3352C1.78841 22.1829 2.2292 22.9018 2.94585 23.6185C3.66255 24.3352 4.38146 24.776 5.22916 25.1054C6.04913 25.4241 6.98623 25.642 8.35833 25.7046C9.7333 25.7673 10.1723 25.7822 13.6733 25.7822C17.1743 25.7822 17.6133 25.7673 18.9883 25.7046C20.3604 25.642 21.2975 25.4241 22.1175 25.1054C22.9652 24.776 23.6841 24.3352 24.4008 23.6185C25.1174 22.9018 25.5582 22.1829 25.8876 21.3352C26.2063 20.5153 26.4242 19.5782 26.4868 18.2061C26.5495 16.8311 26.5644 16.3921 26.5644 12.8911C26.5644 9.39007 26.5495 8.95107 26.4868 7.5761C26.4242 6.204 26.2063 5.2669 25.8876 4.44693C25.5582 3.59923 25.1174 2.88033 24.4008 2.16362C23.6841 1.44697 22.9652 1.00618 22.1175 0.676791C21.2975 0.358096 20.3604 0.140158 18.9883 0.0775756C17.6133 0.0148397 17.1743 0 13.6733 0ZM13.6733 2.32271C17.1154 2.32271 17.5231 2.33586 18.8824 2.39788C20.1393 2.45519 20.8218 2.6652 21.2761 2.84174C21.8778 3.07559 22.3072 3.35494 22.7583 3.80606C23.2094 4.25714 23.4888 4.68657 23.7226 5.28829C23.8992 5.74254 24.1092 6.42511 24.1665 7.68198C24.2285 9.04129 24.2417 9.44902 24.2417 12.8911C24.2417 16.3331 24.2285 16.7409 24.1665 18.1002C24.1092 19.357 23.8992 20.0396 23.7226 20.4939C23.4888 21.0956 23.2094 21.525 22.7583 21.9761C22.3072 22.4272 21.8778 22.7066 21.2761 22.9404C20.8218 23.117 20.1393 23.327 18.8824 23.3843C17.5233 23.4463 17.1156 23.4594 13.6733 23.4594C10.231 23.4594 9.82336 23.4463 8.46421 23.3843C7.20734 23.327 6.52477 23.117 6.07052 22.9404C5.4688 22.7066 5.03937 22.4272 4.58829 21.9761C4.13722 21.525 3.85782 21.0956 3.62397 20.4939C3.44743 20.0396 3.23742 19.357 3.18011 18.1002C3.11809 16.7409 3.10494 16.3331 3.10494 12.8911C3.10494 9.44902 3.11809 9.04129 3.18011 7.68198C3.23742 6.42511 3.44743 5.74254 3.62397 5.28829C3.85782 4.68657 4.13717 4.25714 4.58829 3.80606C5.03937 3.35494 5.4688 3.07559 6.07052 2.84174C6.52477 2.6652 7.20734 2.45519 8.46421 2.39788C9.82352 2.33586 10.2313 2.32271 13.6733 2.32271Z" fill="url(#paint4_linear_771_31291)"/>
<path fill-rule="evenodd" clip-rule="evenodd" d="M13.6733 0C10.1723 0 9.7333 0.0148397 8.35833 0.0775756C6.98623 0.140158 6.04913 0.358096 5.22916 0.676791C4.38146 1.00618 3.66255 1.44697 2.94585 2.16362C2.2292 2.88033 1.78841 3.59923 1.45902 4.44693C1.14032 5.2669 0.922385 6.204 0.859802 7.5761C0.797066 8.95107 0.782227 9.39007 0.782227 12.8911C0.782227 16.3921 0.797066 16.8311 0.859802 18.2061C0.922385 19.5782 1.14032 20.5153 1.45902 21.3352C1.78841 22.1829 2.2292 22.9018 2.94585 23.6185C3.66255 24.3352 4.38146 24.776 5.22916 25.1054C6.04913 25.4241 6.98623 25.642 8.35833 25.7046C9.7333 25.7673 10.1723 25.7822 13.6733 25.7822C17.1743 25.7822 17.6133 25.7673 18.9883 25.7046C20.3604 25.642 21.2975 25.4241 22.1175 25.1054C22.9652 24.776 23.6841 24.3352 24.4008 23.6185C25.1174 22.9018 25.5582 22.1829 25.8876 21.3352C26.2063 20.5153 26.4242 19.5782 26.4868 18.2061C26.5495 16.8311 26.5644 16.3921 26.5644 12.8911C26.5644 9.39007 26.5495 8.95107 26.4868 7.5761C26.4242 6.204 26.2063 5.2669 25.8876 4.44693C25.5582 3.59923 25.1174 2.88033 24.4008 2.16362C23.6841 1.44697 22.9652 1.00618 22.1175 0.676791C21.2975 0.358096 20.3604 0.140158 18.9883 0.0775756C17.6133 0.0148397 17.1743 0 13.6733 0ZM13.6733 2.32271C17.1154 2.32271 17.5231 2.33586 18.8824 2.39788C20.1393 2.45519 20.8218 2.6652 21.2761 2.84174C21.8778 3.07559 22.3072 3.35494 22.7583 3.80606C23.2094 4.25714 23.4888 4.68657 23.7226 5.28829C23.8992 5.74254 24.1092 6.42511 24.1665 7.68198C24.2285 9.04129 24.2417 9.44902 24.2417 12.8911C24.2417 16.3331 24.2285 16.7409 24.1665 18.1002C24.1092 19.357 23.8992 20.0396 23.7226 20.4939C23.4888 21.0956 23.2094 21.525 22.7583 21.9761C22.3072 22.4272 21.8778 22.7066 21.2761 22.9404C20.8218 23.117 20.1393 23.327 18.8824 23.3843C17.5233 23.4463 17.1156 23.4594 13.6733 23.4594C10.231 23.4594 9.82336 23.4463 8.46421 23.3843C7.20734 23.327 6.52477 23.117 6.07052 22.9404C5.4688 22.7066 5.03937 22.4272 4.58829 21.9761C4.13722 21.525 3.85782 21.0956 3.62397 20.4939C3.44743 20.0396 3.23742 19.357 3.18011 18.1002C3.11809 16.7409 3.10494 16.3331 3.10494 12.8911C3.10494 9.44902 3.11809 9.04129 3.18011 7.68198C3.23742 6.42511 3.44743 5.74254 3.62397 5.28829C3.85782 4.68657 4.13717 4.25714 4.58829 3.80606C5.03937 3.35494 5.4688 3.07559 6.07052 2.84174C6.52477 2.6652 7.20734 2.45519 8.46421 2.39788C9.82352 2.33586 10.2313 2.32271 13.6733 2.32271Z" fill="url(#paint5_radial_771_31291)"/>
<defs>
<linearGradient id="paint0_linear_771_31291" x1="2.28653" y1="1.35544" x2="10.4154" y2="32.799" gradientUnits="userSpaceOnUse">
<stop stop-color="#4E60D3"/>
<stop offset="0.142763" stop-color="#913BAF"/>
<stop offset="0.761458" stop-color="#D52D88"/>
<stop offset="1" stop-color="#F26D4F"/>
</linearGradient>
<radialGradient id="paint1_radial_771_31291" cx="0" cy="0" r="1" gradientUnits="userSpaceOnUse" gradientTransform="translate(8.5876 25.7822) rotate(32.1601) scale(24.0791 17.329)">
<stop stop-color="#FED276"/>
<stop offset="0.17024" stop-color="#FDBD61" stop-opacity="0.975006"/>
<stop offset="0.454081" stop-color="#F6804D"/>
<stop offset="1" stop-color="#E83D5C" stop-opacity="0.01"/>
</radialGradient>
<linearGradient id="paint2_linear_771_31291" x1="2.28653" y1="1.35544" x2="10.4154" y2="32.799" gradientUnits="userSpaceOnUse">
<stop stop-color="#4E60D3"/>
<stop offset="0.142763" stop-color="#913BAF"/>
<stop offset="0.761458" stop-color="#D52D88"/>
<stop offset="1" stop-color="#F26D4F"/>
</linearGradient>
<radialGradient id="paint3_radial_771_31291" cx="0" cy="0" r="1" gradientUnits="userSpaceOnUse" gradientTransform="translate(8.5876 25.7822) rotate(32.1601) scale(24.0791 17.329)">
<stop stop-color="#FED276"/>
<stop offset="0.17024" stop-color="#FDBD61" stop-opacity="0.975006"/>
<stop offset="0.454081" stop-color="#F6804D"/>
<stop offset="1" stop-color="#E83D5C" stop-opacity="0.01"/>
</radialGradient>
<linearGradient id="paint4_linear_771_31291" x1="2.28653" y1="1.35544" x2="10.4154" y2="32.799" gradientUnits="userSpaceOnUse">
<stop stop-color="#4E60D3"/>
<stop offset="0.142763" stop-color="#913BAF"/>
<stop offset="0.761458" stop-color="#D52D88"/>
<stop offset="1" stop-color="#F26D4F"/>
</linearGradient>
<radialGradient id="paint5_radial_771_31291" cx="0" cy="0" r="1" gradientUnits="userSpaceOnUse" gradientTransform="translate(8.5876 25.7822) rotate(32.1601) scale(24.0791 17.329)">
<stop stop-color="#FED276"/>
<stop offset="0.17024" stop-color="#FDBD61" stop-opacity="0.975006"/>
<stop offset="0.454081" stop-color="#F6804D"/>
<stop offset="1" stop-color="#E83D5C" stop-opacity="0.01"/>
</radialGradient>
</defs>
</svg>
