<svg width="50" height="50" viewBox="0 0 50 50" fill="none" xmlns="http://www.w3.org/2000/svg">
<rect width="50" height="50" rx="8" fill="#E9FFF7"/>
<path d="M24.75 24.7497C25.4722 23.8608 26.0069 22.9441 26.3542 21.9997C26.7014 21.0552 26.875 19.958 26.875 18.708C26.875 17.458 26.7014 16.3608 26.3542 15.4163C26.0069 14.4719 25.4722 13.5552 24.75 12.6663C26.8611 12.1941 28.7153 12.5136 30.3125 13.6247C31.9097 14.7358 32.7083 16.4302 32.7083 18.708C32.7083 20.9858 31.9097 22.6802 30.3125 23.7913C28.7153 24.9024 26.8611 25.2219 24.75 24.7497ZM33.75 38.333V34.4163C33.75 32.9997 33.3889 31.6802 32.6667 30.458C31.9444 29.2358 30.6944 28.208 28.9167 27.3747C33.7222 27.9858 37.0069 28.8747 38.7708 30.0413C40.5347 31.208 41.4167 32.6663 41.4167 34.4163V38.333H33.75ZM38.3333 26.2913V22.1247H34.1667V19.6247H38.3333V15.458H40.8333V19.6247H45V22.1247H40.8333V26.2913H38.3333ZM18.125 24.958C16.2917 24.958 14.7917 24.3747 13.625 23.208C12.4583 22.0413 11.875 20.5413 11.875 18.708C11.875 16.8747 12.4583 15.3747 13.625 14.208C14.7917 13.0413 16.2917 12.458 18.125 12.458C19.9583 12.458 21.4583 13.0413 22.625 14.208C23.7917 15.3747 24.375 16.8747 24.375 18.708C24.375 20.5413 23.7917 22.0413 22.625 23.208C21.4583 24.3747 19.9583 24.958 18.125 24.958V24.958ZM5 38.333V34.4163C5 33.4441 5.25694 32.5622 5.77083 31.7705C6.28472 30.9788 6.97222 30.3886 7.83333 29.9997C9.83333 29.1108 11.6181 28.4719 13.1875 28.083C14.7569 27.6941 16.4028 27.4997 18.125 27.4997C19.8472 27.4997 21.4861 27.6941 23.0417 28.083C24.5972 28.4719 26.375 29.1108 28.375 29.9997C29.2361 30.3886 29.9306 30.9788 30.4583 31.7705C30.9861 32.5622 31.25 33.4441 31.25 34.4163V38.333H5ZM18.125 22.458C19.2083 22.458 20.1042 22.1038 20.8125 21.3955C21.5208 20.6872 21.875 19.7913 21.875 18.708C21.875 17.6247 21.5208 16.7288 20.8125 16.0205C20.1042 15.3122 19.2083 14.958 18.125 14.958C17.0417 14.958 16.1458 15.3122 15.4375 16.0205C14.7292 16.7288 14.375 17.6247 14.375 18.708C14.375 19.7913 14.7292 20.6872 15.4375 21.3955C16.1458 22.1038 17.0417 22.458 18.125 22.458ZM7.5 35.833H28.75V34.4163C28.75 33.9719 28.6389 33.5552 28.4167 33.1663C28.1944 32.7774 27.8472 32.4719 27.375 32.2497C25.4583 31.3608 23.8333 30.7636 22.5 30.458C21.1667 30.1524 19.7083 29.9997 18.125 29.9997C16.5417 29.9997 15.0903 30.1524 13.7708 30.458C12.4514 30.7636 10.8056 31.3608 8.83333 32.2497C8.41667 32.4441 8.09028 32.7427 7.85417 33.1455C7.61806 33.5483 7.5 33.9719 7.5 34.4163V35.833Z" fill="#33CC94"/>
</svg>
