<svg width="56" height="56" viewBox="0 0 56 56" fill="none" xmlns="http://www.w3.org/2000/svg">
<rect width="56" height="56" rx="8" fill="#E9FFF7"/>
<path d="M27.75 27.7497C28.4722 26.8608 29.0069 25.9441 29.3542 24.9997C29.7014 24.0552 29.875 22.958 29.875 21.708C29.875 20.458 29.7014 19.3608 29.3542 18.4163C29.0069 17.4719 28.4722 16.5552 27.75 15.6663C29.8611 15.1941 31.7153 15.5136 33.3125 16.6247C34.9097 17.7358 35.7083 19.4302 35.7083 21.708C35.7083 23.9858 34.9097 25.6802 33.3125 26.7913C31.7153 27.9024 29.8611 28.2219 27.75 27.7497ZM36.75 41.333V37.4163C36.75 35.9997 36.3889 34.6802 35.6667 33.458C34.9444 32.2358 33.6944 31.208 31.9167 30.3747C36.7222 30.9858 40.0069 31.8747 41.7708 33.0413C43.5347 34.208 44.4167 35.6663 44.4167 37.4163V41.333H36.75ZM41.3333 29.2913V25.1247H37.1667V22.6247H41.3333V18.458H43.8333V22.6247H48V25.1247H43.8333V29.2913H41.3333ZM21.125 27.958C19.2917 27.958 17.7917 27.3747 16.625 26.208C15.4583 25.0413 14.875 23.5413 14.875 21.708C14.875 19.8747 15.4583 18.3747 16.625 17.208C17.7917 16.0413 19.2917 15.458 21.125 15.458C22.9583 15.458 24.4583 16.0413 25.625 17.208C26.7917 18.3747 27.375 19.8747 27.375 21.708C27.375 23.5413 26.7917 25.0413 25.625 26.208C24.4583 27.3747 22.9583 27.958 21.125 27.958ZM8 41.333V37.4163C8 36.4441 8.25694 35.5622 8.77083 34.7705C9.28472 33.9788 9.97222 33.3886 10.8333 32.9997C12.8333 32.1108 14.6181 31.4719 16.1875 31.083C17.7569 30.6941 19.4028 30.4997 21.125 30.4997C22.8472 30.4997 24.4861 30.6941 26.0417 31.083C27.5972 31.4719 29.375 32.1108 31.375 32.9997C32.2361 33.3886 32.9306 33.9788 33.4583 34.7705C33.9861 35.5622 34.25 36.4441 34.25 37.4163V41.333H8ZM21.125 25.458C22.2083 25.458 23.1042 25.1038 23.8125 24.3955C24.5208 23.6872 24.875 22.7913 24.875 21.708C24.875 20.6247 24.5208 19.7288 23.8125 19.0205C23.1042 18.3122 22.2083 17.958 21.125 17.958C20.0417 17.958 19.1458 18.3122 18.4375 19.0205C17.7292 19.7288 17.375 20.6247 17.375 21.708C17.375 22.7913 17.7292 23.6872 18.4375 24.3955C19.1458 25.1038 20.0417 25.458 21.125 25.458ZM10.5 38.833H31.75V37.4163C31.75 36.9719 31.6389 36.5552 31.4167 36.1663C31.1944 35.7774 30.8472 35.4719 30.375 35.2497C28.4583 34.3608 26.8333 33.7636 25.5 33.458C24.1667 33.1524 22.7083 32.9997 21.125 32.9997C19.5417 32.9997 18.0903 33.1524 16.7708 33.458C15.4514 33.7636 13.8056 34.3608 11.8333 35.2497C11.4167 35.4441 11.0903 35.7427 10.8542 36.1455C10.6181 36.5483 10.5 36.9719 10.5 37.4163V38.833Z" fill="#33CC94"/>
</svg>
