<svg width="26" height="26" viewBox="0 0 26 26" fill="none" xmlns="http://www.w3.org/2000/svg">
<path d="M23.8721 0.00192246H1.90249C0.864165 -0.00979534 0.0126722 0.821947 0 1.86029V23.9215C0.0122384 24.9603 0.863662 25.7929 1.90249 25.782H23.8721C24.913 25.7949 25.7677 24.9624 25.7822 23.9215V1.8587C25.7673 0.818304 24.9125 -0.0133908 23.8721 0.000163342" fill="#0A66C2"/>
<path d="M18.1491 22.4185H21.9692L21.9708 15.6695C21.9708 12.3563 21.257 9.80948 17.3851 9.80948C15.905 9.75453 14.5145 10.5182 13.7668 11.7968H13.7154V10.1155H10.0481V22.4181H13.8682V16.3321C13.8682 14.7272 14.1726 13.1728 16.1623 13.1728C18.1237 13.1728 18.1491 15.0093 18.1491 16.4359V22.4185Z" fill="white"/>
<path d="M3.52051 6.2173C3.52073 7.44167 4.51343 8.43403 5.73776 8.43381C6.32571 8.43371 6.88953 8.20004 7.3052 7.78421C7.72087 7.36839 7.95433 6.80447 7.95422 6.21651C7.954 4.99214 6.9613 3.99978 5.73697 4C4.51263 4.00022 3.52029 4.99294 3.52051 6.2173Z" fill="white"/>
<path d="M3.82373 22.4185H7.64782V10.1155H3.82373V22.4185Z" fill="white"/>
</svg>
