<svg width="32" height="32" viewBox="0 0 32 32" fill="none" xmlns="http://www.w3.org/2000/svg">
<path d="M9.36671 11.5195H4V28.0633H9.36671V11.5195Z" fill="#33CC94"/>
<path d="M23.986 11.7135C23.929 11.6957 23.875 11.6762 23.8152 11.6593C23.7429 11.6429 23.6712 11.6292 23.5976 11.6174C23.3129 11.5602 23.0004 11.5196 22.6346 11.5196C19.5061 11.5196 17.5213 13.8013 16.8677 14.6825V11.5195H11.501V28.0633H16.8677V19.0395C16.8677 19.0395 20.9232 13.3755 22.6346 17.5353V28.0633H27.9999V16.8994C27.9999 14.3996 26.2913 12.3166 23.986 11.7135Z" fill="#33CC94"/>
<path d="M9.24978 6.63191C9.24978 8.08573 8.07436 9.26391 6.62492 9.26391C5.17537 9.26391 4 8.08568 4 6.63191C4 5.17839 5.17537 4 6.62492 4C8.07436 4 9.24978 5.17839 9.24978 6.63191Z" fill="#33CC94"/>
</svg>
