<svg width="32" height="32" viewBox="0 0 32 32" fill="none" xmlns="http://www.w3.org/2000/svg">
<path d="M9.36671 11.5195H4V28.0633H9.36671V11.5195Z" fill="#152934"/>
<path d="M23.987 11.7135C23.93 11.6957 23.876 11.6762 23.8162 11.6593C23.7439 11.6429 23.6721 11.6292 23.5986 11.6174C23.3138 11.5602 23.0014 11.5196 22.6356 11.5196C19.5071 11.5196 17.5223 13.8013 16.8687 14.6825V11.5195H11.502V28.0633H16.8687V19.0395C16.8687 19.0395 20.9242 13.3755 22.6356 17.5353V28.0633H28.0009V16.8994C28.0009 14.3996 26.2923 12.3166 23.987 11.7135Z" fill="#152934"/>
<path d="M9.24978 6.63191C9.24978 8.08573 8.07436 9.26391 6.62492 9.26391C5.17537 9.26391 4 8.08568 4 6.63191C4 5.17839 5.17537 4 6.62492 4C8.07436 4 9.24978 5.17839 9.24978 6.63191Z" fill="#152934"/>
</svg>
