<svg width="56" height="56" viewBox="0 0 56 56" fill="none" xmlns="http://www.w3.org/2000/svg">
<rect width="56" height="56" rx="8" fill="#E9FFF7"/>
<g clip-path="url(#clip0_5292_12659)">
<path d="M18 29.6667C14.3334 29.6667 11.3334 32.6667 11.3334 36.3333C11.3334 40 14.3334 43 18 43C21.6667 43 24.6667 40 24.6667 36.3333C24.6667 32.6667 21.6667 29.6667 18 29.6667ZM28 13C24.3334 13 21.3334 16 21.3334 19.6667C21.3334 23.3333 24.3334 26.3333 28 26.3333C31.6667 26.3333 34.6667 23.3333 34.6667 19.6667C34.6667 16 31.6667 13 28 13ZM38 29.6667C34.3334 29.6667 31.3334 32.6667 31.3334 36.3333C31.3334 40 34.3334 43 38 43C41.6667 43 44.6667 40 44.6667 36.3333C44.6667 32.6667 41.6667 29.6667 38 29.6667Z" fill="#33CC94"/>
</g>
<defs>
<clipPath id="clip0_5292_12659">
<rect width="40" height="40" fill="white" transform="translate(8 8)"/>
</clipPath>
</defs>
</svg>
