<svg width="56" height="56" viewBox="0 0 56 56" fill="none" xmlns="http://www.w3.org/2000/svg">
<rect width="56" height="56" rx="8" fill="#E9FFF7"/>
<g clip-path="url(#clip0_5326_11349)">
<path d="M35.5 28.0007C37.8 28.0007 39.65 26.134 39.65 23.834C39.65 21.534 37.8 19.6673 35.5 19.6673C33.2 19.6673 31.3334 21.534 31.3334 23.834C31.3334 26.134 33.2 28.0007 35.5 28.0007ZM23 26.334C25.7667 26.334 27.9834 24.1007 27.9834 21.334C27.9834 18.5673 25.7667 16.334 23 16.334C20.2334 16.334 18 18.5673 18 21.334C18 24.1007 20.2334 26.334 23 26.334ZM35.5 31.334C32.45 31.334 26.3334 32.8673 26.3334 35.9173V39.6673H44.6667V35.9173C44.6667 32.8673 38.55 31.334 35.5 31.334ZM23 29.6673C19.1167 29.6673 11.3334 31.6173 11.3334 35.5007V39.6673H23V35.9173C23 34.5007 23.55 32.0173 26.95 30.134C25.5 29.834 24.1 29.6673 23 29.6673Z" fill="#33CC94"/>
</g>
<defs>
<clipPath id="clip0_5326_11349">
<rect width="40" height="40" fill="white" transform="translate(8 8)"/>
</clipPath>
</defs>
</svg>
