<svg width="50" height="50" viewBox="0 0 50 50" fill="none" xmlns="http://www.w3.org/2000/svg">
<rect width="50" height="50" rx="8" fill="#E9FFF7"/>
<g clip-path="url(#clip0_5206_9371)">
<path d="M20 26.6673C23.6819 26.6673 26.6667 23.6825 26.6667 20.0007C26.6667 16.3188 23.6819 13.334 20 13.334C16.3181 13.334 13.3334 16.3188 13.3334 20.0007C13.3334 23.6825 16.3181 26.6673 20 26.6673Z" fill="#33CC94"/>
<path d="M20 30.0007C15.55 30.0007 6.66663 32.234 6.66663 36.6673V40.0007H33.3333V36.6673C33.3333 32.234 24.45 30.0007 20 30.0007ZM32.9333 13.934L30.1333 16.7507C31.5333 18.7173 31.5333 21.2673 30.1333 23.234L32.9333 26.0507C36.3 22.684 36.3 17.6007 32.9333 13.934ZM38.45 8.33398L35.7333 11.0507C40.35 16.084 40.35 23.6507 35.7333 28.9507L38.45 31.6673C44.95 25.184 44.9666 15.084 38.45 8.33398Z" fill="#33CC94"/>
</g>
<defs>
<clipPath id="clip0_5206_9371">
<rect width="40" height="40" fill="white" transform="translate(5 5)"/>
</clipPath>
</defs>
</svg>
