<svg width="140" height="83" viewBox="0 0 140 83" fill="none" xmlns="http://www.w3.org/2000/svg">
<path d="M22.3018 36.936C24.1791 36.936 25.6938 36.6587 26.8458 36.104C28.0404 35.5067 28.9364 34.6747 29.5338 33.608C30.1311 32.4987 30.4298 31.1973 30.4298 29.704C30.4298 27.4427 29.7684 25.6933 28.4458 24.456C27.1231 23.176 25.0751 22.536 22.3018 22.536H12.3818V36.936H22.3018ZM38.1098 29.704C38.1098 31.3253 37.8324 32.9253 37.2778 34.504C36.7231 36.0827 35.8271 37.5547 34.5898 38.92C33.3524 40.2427 31.7098 41.3093 29.6618 42.12C27.6564 42.888 25.2031 43.272 22.3018 43.272H12.3818V61H4.76575V16.2H22.3018C25.8858 16.2 28.8298 16.8187 31.1338 18.056C33.4804 19.2507 35.2298 20.8933 36.3818 22.984C37.5338 25.032 38.1098 27.272 38.1098 29.704ZM45.8433 29H53.0753V61H45.8433V29ZM49.4913 24.136C48.1686 24.136 47.0593 23.688 46.1633 22.792C45.2673 21.896 44.8193 20.8293 44.8193 19.592C44.8193 18.2693 45.2673 17.16 46.1633 16.264C47.0593 15.368 48.1686 14.92 49.4913 14.92C50.7713 14.92 51.8593 15.368 52.7553 16.264C53.6513 17.16 54.0993 18.2693 54.0993 19.592C54.0993 20.8293 53.6513 21.896 52.7553 22.792C51.8593 23.688 50.7713 24.136 49.4913 24.136ZM62.6318 29H69.1598L69.7358 32.968C70.5891 31.9013 71.5918 31.0267 72.7438 30.344C73.8958 29.6187 75.1331 29.128 76.4558 28.872C77.8211 28.616 79.1864 28.6587 80.5518 29V35.656C79.4424 35.272 78.2478 35.1867 76.9678 35.4C75.7304 35.5707 74.5784 36.04 73.5118 36.808C72.4451 37.5333 71.5704 38.5787 70.8878 39.944C70.2051 41.2667 69.8638 42.9093 69.8638 44.872V61H62.6318V29ZM99.9038 61.448C96.8318 61.448 94.0798 60.7867 91.6478 59.464C89.2158 58.0987 87.3171 56.2 85.9518 53.768C84.5864 51.2933 83.9038 48.392 83.9038 45.064C83.9038 41.6933 84.6078 38.7707 86.0158 36.296C87.4238 33.8213 89.3651 31.9227 91.8398 30.6C94.3144 29.2347 97.0664 28.552 100.096 28.552C103.168 28.552 105.92 29.2347 108.352 30.6C110.826 31.9227 112.789 33.8213 114.24 36.296C115.69 38.728 116.416 41.608 116.416 44.936C116.416 48.3067 115.669 51.2293 114.176 53.704C112.725 56.1787 110.741 58.0987 108.224 59.464C105.749 60.7867 102.976 61.448 99.9038 61.448ZM99.8398 54.984C101.333 54.984 102.741 54.6213 104.064 53.896C105.429 53.1707 106.538 52.0827 107.392 50.632C108.245 49.1387 108.672 47.24 108.672 44.936C108.672 42.7173 108.266 40.8827 107.456 39.432C106.645 37.9387 105.578 36.8293 104.256 36.104C102.933 35.3787 101.504 35.016 99.9678 35.016C98.4744 35.016 97.0878 35.3787 95.8078 36.104C94.5704 36.8293 93.5678 37.9387 92.7998 39.432C92.0318 40.8827 91.6478 42.76 91.6478 45.064C91.6478 47.2827 92.0104 49.1387 92.7358 50.632C93.5038 52.0827 94.5064 53.1707 95.7438 53.896C96.9811 54.6213 98.3464 54.984 99.8398 54.984Z" fill="#FDFDFA"/>
<path d="M6.27009 74.796C6.34209 75.12 6.49209 75.444 6.72009 75.768C6.96009 76.08 7.28409 76.344 7.69209 76.56C8.11209 76.764 8.64609 76.866 9.29409 76.866C10.2181 76.866 10.9021 76.65 11.3461 76.218C11.7901 75.786 12.0121 75.276 12.0121 74.688C12.0121 74.22 11.8861 73.836 11.6341 73.536C11.3821 73.236 11.0401 72.99 10.6081 72.798C10.1761 72.594 9.69009 72.414 9.15009 72.258C8.67009 72.126 8.19009 71.982 7.71009 71.826C7.24209 71.658 6.81609 71.454 6.43209 71.214C6.04809 70.962 5.74209 70.638 5.51409 70.242C5.28609 69.846 5.17209 69.354 5.17209 68.766C5.17209 68.058 5.34009 67.446 5.67609 66.93C6.01209 66.402 6.48609 65.994 7.09809 65.706C7.71009 65.418 8.42409 65.274 9.24009 65.274C9.94809 65.274 10.5661 65.376 11.0941 65.58C11.6221 65.784 12.0601 66.072 12.4081 66.444C12.7681 66.804 13.0321 67.224 13.2001 67.704L11.9221 68.19C11.8381 67.914 11.6761 67.65 11.4361 67.398C11.1961 67.134 10.8841 66.918 10.5001 66.75C10.1161 66.582 9.67809 66.498 9.18609 66.498C8.70609 66.498 8.26809 66.582 7.87209 66.75C7.48809 66.918 7.18209 67.158 6.95409 67.47C6.72609 67.782 6.61209 68.16 6.61209 68.604C6.61209 69.084 6.74409 69.468 7.00809 69.756C7.28409 70.032 7.64409 70.26 8.08809 70.44C8.54409 70.608 9.04209 70.77 9.58209 70.926C10.0741 71.082 10.5481 71.25 11.0041 71.43C11.4721 71.61 11.8861 71.832 12.2461 72.096C12.6181 72.36 12.9121 72.69 13.1281 73.086C13.3441 73.482 13.4521 73.968 13.4521 74.544C13.4521 75.18 13.3021 75.774 13.0021 76.326C12.7021 76.866 12.2461 77.304 11.6341 77.64C11.0341 77.964 10.2601 78.126 9.31209 78.126C8.52009 78.126 7.82409 78.006 7.22409 77.766C6.62409 77.514 6.13209 77.178 5.74809 76.758C5.36409 76.338 5.10009 75.858 4.95609 75.318L6.27009 74.796ZM16.966 76.182L17.11 76.164V81.6H15.76V69H17.002L17.092 70.674C17.368 70.17 17.776 69.744 18.316 69.396C18.856 69.048 19.534 68.874 20.35 68.874C21.13 68.874 21.832 69.066 22.456 69.45C23.08 69.822 23.572 70.356 23.932 71.052C24.292 71.736 24.472 72.552 24.472 73.5C24.472 74.436 24.298 75.252 23.95 75.948C23.614 76.632 23.134 77.166 22.51 77.55C21.898 77.934 21.178 78.126 20.35 78.126C19.486 78.126 18.772 77.94 18.208 77.568C17.644 77.196 17.23 76.734 16.966 76.182ZM23.014 73.5C23.014 72.468 22.744 71.652 22.204 71.052C21.676 70.44 20.962 70.134 20.062 70.134C19.498 70.134 18.988 70.266 18.532 70.53C18.088 70.794 17.74 71.178 17.488 71.682C17.236 72.186 17.11 72.792 17.11 73.5C17.11 74.196 17.236 74.796 17.488 75.3C17.74 75.804 18.088 76.194 18.532 76.47C18.988 76.734 19.498 76.866 20.062 76.866C20.962 76.866 21.676 76.566 22.204 75.966C22.744 75.354 23.014 74.532 23.014 73.5ZM32.31 78L32.202 76.38C31.95 76.932 31.578 77.364 31.086 77.676C30.594 77.976 29.97 78.126 29.214 78.126C28.566 78.126 28.014 78.024 27.558 77.82C27.102 77.616 26.748 77.328 26.496 76.956C26.256 76.572 26.136 76.122 26.136 75.606C26.136 74.85 26.418 74.232 26.982 73.752C27.546 73.26 28.362 72.96 29.43 72.852L32.202 72.546V71.826C32.202 71.322 32.016 70.92 31.644 70.62C31.272 70.308 30.768 70.152 30.132 70.152C29.508 70.152 28.986 70.296 28.566 70.584C28.158 70.872 27.876 71.286 27.72 71.826L26.496 71.394C26.736 70.602 27.174 69.984 27.81 69.54C28.458 69.096 29.244 68.874 30.168 68.874C31.236 68.874 32.064 69.15 32.652 69.702C33.252 70.242 33.552 70.98 33.552 71.916V78H32.31ZM32.202 73.698L29.412 74.022C28.812 74.094 28.356 74.262 28.044 74.526C27.732 74.778 27.576 75.114 27.576 75.534C27.576 75.954 27.726 76.29 28.026 76.542C28.338 76.794 28.782 76.92 29.358 76.92C30.018 76.92 30.558 76.788 30.978 76.524C31.398 76.26 31.704 75.906 31.896 75.462C32.1 75.006 32.202 74.514 32.202 73.986V73.698ZM40.0198 78.126C39.1438 78.126 38.3758 77.934 37.7158 77.55C37.0558 77.166 36.5398 76.632 36.1678 75.948C35.8078 75.252 35.6278 74.448 35.6278 73.536C35.6278 72.612 35.8078 71.802 36.1678 71.106C36.5398 70.398 37.0558 69.852 37.7158 69.468C38.3758 69.072 39.1438 68.874 40.0198 68.874C40.9438 68.874 41.7538 69.09 42.4498 69.522C43.1458 69.942 43.6498 70.53 43.9618 71.286L42.7198 71.718C42.5398 71.238 42.2098 70.86 41.7298 70.584C41.2618 70.296 40.7158 70.152 40.0918 70.152C39.4798 70.152 38.9458 70.29 38.4898 70.566C38.0458 70.842 37.6978 71.232 37.4458 71.736C37.2058 72.24 37.0858 72.834 37.0858 73.518C37.0858 74.526 37.3558 75.336 37.8958 75.948C38.4358 76.548 39.1558 76.848 40.0558 76.848C40.6678 76.848 41.2138 76.71 41.6938 76.434C42.1738 76.158 42.5278 75.786 42.7558 75.318L43.9798 75.75C43.6558 76.494 43.1458 77.076 42.4498 77.496C41.7538 77.916 40.9438 78.126 40.0198 78.126ZM49.9678 78.126C49.1278 78.126 48.3778 77.922 47.7178 77.514C47.0698 77.106 46.5598 76.548 46.1878 75.84C45.8158 75.132 45.6298 74.322 45.6298 73.41C45.6298 72.534 45.8158 71.754 46.1878 71.07C46.5598 70.386 47.0698 69.852 47.7178 69.468C48.3658 69.072 49.1038 68.874 49.9318 68.874C50.7478 68.874 51.4738 69.054 52.1098 69.414C52.7578 69.774 53.2618 70.272 53.6218 70.908C53.9818 71.544 54.1498 72.27 54.1258 73.086C54.1258 73.218 54.1198 73.356 54.1078 73.5C54.0958 73.644 54.0838 73.8 54.0718 73.968H47.1058C47.1298 74.532 47.2678 75.03 47.5198 75.462C47.7718 75.894 48.1018 76.236 48.5098 76.488C48.9298 76.728 49.4038 76.848 49.9318 76.848C50.6278 76.848 51.2158 76.716 51.6958 76.452C52.1878 76.188 52.5418 75.81 52.7578 75.318L53.9278 75.786C53.5678 76.542 53.0458 77.124 52.3618 77.532C51.6778 77.928 50.8798 78.126 49.9678 78.126ZM52.6498 72.798C52.6618 72.282 52.5478 71.826 52.3078 71.43C52.0798 71.034 51.7558 70.722 51.3358 70.494C50.9158 70.266 50.4298 70.152 49.8778 70.152C49.3978 70.152 48.9598 70.266 48.5638 70.494C48.1678 70.722 47.8378 71.04 47.5738 71.448C47.3218 71.844 47.1718 72.294 47.1238 72.798H52.6498Z" fill="#FDFDFA"/>
<path d="M135.788 31.5398L135.756 31.6108C134.793 33.5286 134.775 33.565 134.101 34.5819C133.807 34.9871 133.427 35.5383 133.117 35.9316C133.354 35.6047 133.678 35.1747 133.897 34.8357C134.297 34.2027 134.821 33.3519 135.181 32.6944C135.366 32.35 135.625 31.8959 135.788 31.5398Z" fill="url(#paint0_linear_907_4425)"/>
<path d="M133.493 34.8811C133.522 34.9959 133.555 35.155 133.545 35.2736C133.193 35.7699 132.704 36.4178 132.315 36.8836L132.105 37.1151L131.991 37.2376L131.918 37.3152C131.521 37.7042 130.999 38.2317 130.586 38.6028C130.251 38.8698 129.807 39.2305 129.456 39.4766C129.493 39.3889 129.538 39.2676 129.544 39.1726C129.915 38.7767 130.393 38.2323 130.728 37.8055C131.216 37.2749 131.86 36.5585 132.314 35.9969C132.671 35.6663 133.152 35.2291 133.493 34.8811Z" fill="url(#paint1_linear_907_4425)"/>
<path d="M129.841 37.8078C129.956 37.9073 130.109 38.0425 130.208 38.1585C129.87 38.5694 129.402 39.1026 129.03 39.4828C128.444 39.8916 127.656 40.4281 127.046 40.7989C126.588 40.9835 125.978 41.234 125.512 41.4C125.457 41.3239 125.378 41.224 125.31 41.1587C125.673 40.8674 126.143 40.462 126.476 40.1373C127.031 39.7242 127.767 39.1641 128.292 38.7123C128.759 38.4448 129.383 38.0911 129.841 37.8078Z" fill="url(#paint2_linear_907_4425)"/>
<path d="M125.299 40.1382C125.463 40.2139 125.682 40.317 125.841 40.4027C125.503 40.7083 125.038 41.0999 124.673 41.3716C124.026 41.6456 123.157 42.0006 122.493 42.2297C121.954 42.3298 121.234 42.4671 120.692 42.5506C120.592 42.507 120.457 42.4497 120.355 42.4104C120.728 42.2455 121.219 42.0064 121.574 41.804C122.174 41.5264 122.971 41.1453 123.548 40.8215C124.074 40.6193 124.778 40.3528 125.299 40.1382Z" fill="url(#paint3_linear_907_4425)"/>
<path d="M136.753 25.541C136.895 25.6774 137.083 25.8629 137.199 26.0215C137.153 26.6656 137.061 27.5228 136.952 28.1596C136.735 28.9005 136.434 29.887 136.171 30.6125C135.972 31.0213 135.712 31.5694 135.485 31.963C135.442 31.826 135.371 31.6454 135.293 31.5239C135.393 30.9259 135.495 30.1227 135.532 29.5174C135.707 28.7725 135.929 27.7757 136.056 27.0212C136.272 26.5803 136.566 25.995 136.753 25.541Z" fill="url(#paint4_linear_907_4425)"/>
<path d="M134.333 29.5498C134.588 29.6884 134.927 29.8759 135.17 30.0336C135.127 30.6309 135.039 31.4264 134.934 32.0157C134.606 32.68 134.16 33.5618 133.79 34.2036C133.439 34.5528 132.975 35.0222 132.608 35.3542C132.455 35.2242 132.245 35.0554 132.078 34.9421C132.175 34.4095 132.271 33.6925 132.305 33.1526C132.572 32.4812 132.917 31.5803 133.139 30.8927C133.501 30.493 133.987 29.9637 134.333 29.5498Z" fill="url(#paint5_linear_907_4425)"/>
<path d="M130.679 33.1821C131.013 33.3048 131.456 33.4713 131.783 33.6099C131.743 34.1395 131.659 34.8442 131.556 35.365C131.143 35.9378 130.583 36.6949 130.133 37.2372C129.671 37.5254 129.057 37.9129 128.586 38.1868C128.367 38.0806 128.073 37.9428 127.848 37.8481C127.953 37.4052 128.065 36.8067 128.113 36.3534C128.448 35.7757 128.886 34.9976 129.179 34.3973C129.631 34.0351 130.235 33.554 130.679 33.1821Z" fill="url(#paint6_linear_907_4425)"/>
<path d="M126.36 36.448C126.705 36.5352 127.164 36.6546 127.505 36.7534C127.446 37.1916 127.34 37.7734 127.226 38.2005C126.753 38.6646 126.113 39.2754 125.606 39.7012C125.086 39.9249 124.393 40.2267 123.868 40.4388C123.643 40.3694 123.342 40.2788 123.115 40.2174C123.264 39.8929 123.438 39.4475 123.537 39.104C123.918 38.6389 124.417 38.0099 124.758 37.5149C125.24 37.1965 125.883 36.7728 126.36 36.448Z" fill="url(#paint7_linear_907_4425)"/>
<path d="M134.361 11.8146C134.452 11.9134 134.58 12.0409 134.654 12.1524C134.91 12.6168 135.264 13.2291 135.5 13.7044C136.349 15.6129 136.382 15.6877 136.742 16.8586L136.959 17.6286C136.918 17.5426 136.876 17.42 136.822 17.3411C136.575 16.7207 136.218 15.9034 135.921 15.3059C135.614 14.6142 135.195 13.6949 134.85 13.022C134.71 12.6573 134.53 12.167 134.361 11.8146Z" fill="url(#paint8_linear_907_4425)"/>
<path d="M135.183 15.3213C135.433 15.4616 135.764 15.6514 136.001 15.8123C136.296 16.4207 136.666 17.2452 136.91 17.8758C137.074 18.6334 137.283 19.6469 137.4 20.4137C137.386 20.8672 137.373 21.4733 137.325 21.9252C137.15 21.7678 136.909 21.5662 136.717 21.4311C136.455 20.7556 136.077 19.8654 135.761 19.214C135.567 18.4506 135.299 17.4339 135.064 16.6823C135.107 16.2748 135.172 15.731 135.183 15.3213Z" fill="url(#paint9_linear_907_4425)"/>
<path d="M134.326 19.2768C134.713 19.4186 135.227 19.6104 135.606 19.7709C135.918 20.431 136.31 21.3232 136.566 22.0073C136.599 22.8103 136.633 23.8822 136.617 24.6859C136.414 25.1377 136.148 25.7435 135.918 26.1815C135.608 26.0214 135.192 25.814 134.873 25.6717C134.609 25.0034 134.232 24.1215 133.921 23.4735C133.85 22.6744 133.745 21.6078 133.634 20.8133C133.846 20.3542 134.135 19.7445 134.326 19.2768Z" fill="url(#paint10_linear_907_4425)"/>
<path d="M131.953 23.6118C132.437 23.738 133.082 23.909 133.561 24.0505C133.865 24.6934 134.25 25.5625 134.507 26.2265C134.428 26.9847 134.313 27.9951 134.189 28.7469C133.834 29.1615 133.363 29.7162 132.994 30.1175C132.599 29.9771 132.071 29.7937 131.671 29.6685C131.425 29.058 131.074 28.2524 130.785 27.661C130.809 26.908 130.831 25.9033 130.817 25.1505C131.161 24.6909 131.623 24.0809 131.953 23.6118Z" fill="url(#paint11_linear_907_4425)"/>
<path d="M128.528 27.8582C129.058 27.9604 129.765 28.0983 130.292 28.2121C130.573 28.796 130.928 29.5855 131.164 30.1885C130.997 30.8781 130.765 31.7962 130.555 32.4737C130.111 32.8523 129.521 33.3594 129.07 33.7292C128.651 33.6239 128.091 33.4854 127.669 33.3918C127.461 32.8572 127.161 32.1535 126.912 31.6374C126.999 30.9494 127.107 30.0294 127.157 29.3372C127.569 28.8951 128.121 28.3061 128.528 27.8582Z" fill="url(#paint12_linear_907_4425)"/>
<path d="M124.637 31.9108C125.155 31.9805 125.847 32.0751 126.364 32.1544C126.602 32.6612 126.901 33.3454 127.097 33.87C126.87 34.4734 126.558 35.2751 126.289 35.8604C125.818 36.1961 125.19 36.6452 124.714 36.9761C124.33 36.9092 123.818 36.8221 123.432 36.764C123.286 36.3232 123.067 35.742 122.879 35.3176C123.002 34.7135 123.156 33.9061 123.241 33.2956C123.66 32.8802 124.219 32.327 124.637 31.9108Z" fill="url(#paint13_linear_907_4425)"/>
<path d="M127.829 5.21641L128.797 5.85722C130.305 6.99552 130.395 7.06364 131.537 8.16278L132.42 9.10273C132.324 9.01541 132.199 8.89475 132.095 8.81643C131.624 8.36721 130.983 7.78057 130.489 7.35685C129.973 6.9073 129.281 6.31285 128.741 5.89318C128.471 5.68519 128.114 5.40266 127.829 5.21641Z" fill="url(#paint14_linear_907_4425)"/>
<path d="M129.9 7.336C130.156 7.43811 130.496 7.57644 130.746 7.69221C131.244 8.13119 131.897 8.73013 132.371 9.19531C132.826 9.76706 133.427 10.5367 133.85 11.1331C133.999 11.4808 134.205 11.9427 134.323 12.3017C134.059 12.1578 133.704 11.9703 133.432 11.8443C132.926 11.3112 132.238 10.6126 131.707 10.1041C131.283 9.54426 130.713 8.80127 130.263 8.26219C130.162 7.98165 130.032 7.60368 129.9 7.336Z" fill="url(#paint15_linear_907_4425)"/>
<path d="M130.405 10.1367C130.809 10.248 131.348 10.3988 131.748 10.5232C132.281 11.0431 132.98 11.7494 133.487 12.2946C133.842 12.9623 134.308 13.857 134.629 14.5417C134.598 14.9444 134.563 15.482 134.503 15.8805C134.099 15.7355 133.559 15.5466 133.149 15.4176C132.619 14.8231 131.897 14.043 131.34 13.4731C131.01 12.8174 130.564 11.9448 130.207 11.3037C130.273 10.9542 130.367 10.4894 130.405 10.1367Z" fill="url(#paint16_linear_907_4425)"/>
<path d="M129.385 13.611C129.923 13.716 130.639 13.8586 131.174 13.9768C131.731 14.5557 132.46 15.3395 132.991 15.9428C133.236 16.6885 133.554 17.686 133.762 18.4425C133.56 18.9018 133.295 19.5159 133.074 19.966C132.556 19.8367 131.865 19.6688 131.344 19.5541C130.809 18.919 130.081 18.0837 129.518 17.4736C129.278 16.7344 128.953 15.7505 128.685 15.0206C128.899 14.5997 129.187 14.0393 129.385 13.611Z" fill="url(#paint17_linear_907_4425)"/>
<path d="M127.058 17.7672C127.694 17.8514 128.541 17.9665 129.174 18.0632C129.733 18.6804 130.466 19.5145 130.996 20.1567C131.132 20.9438 131.305 21.9951 131.406 22.7872C131.071 23.2581 130.627 23.887 130.279 24.3478C129.696 24.2407 128.916 24.1013 128.33 24.0067C127.809 23.393 127.101 22.5857 126.555 21.993C126.39 21.2181 126.164 20.1851 125.976 19.4148C126.302 18.9214 126.739 18.265 127.058 17.7672Z" fill="url(#paint18_linear_907_4425)"/>
<path d="M123.837 22.3986C124.516 22.4577 125.42 22.5392 126.098 22.6094C126.637 23.1979 127.346 23.9933 127.862 24.6027C127.92 25.352 127.99 26.3512 128.015 27.1027C127.611 27.556 127.073 28.1619 126.663 28.6117C126.071 28.5345 125.282 28.4345 124.689 28.3684C124.2 27.8078 123.537 27.0712 123.026 26.5316C122.902 25.7904 122.731 24.8021 122.584 24.0648C122.961 23.5656 123.463 22.9003 123.837 22.3986Z" fill="url(#paint19_linear_907_4425)"/>
<path d="M120.343 27.0271C121.002 27.0561 121.881 27.0971 122.54 27.1372C123.042 27.6707 123.702 28.3913 124.182 28.9459C124.195 29.6358 124.205 30.5562 124.186 31.246C123.776 31.6734 123.229 32.2427 122.819 32.6693C122.279 32.6261 121.559 32.5706 121.019 32.5363C120.586 32.0465 119.997 31.4034 119.542 30.9341C119.429 30.2492 119.274 29.337 119.14 28.6561C119.5 28.1666 119.979 27.5133 120.343 27.0271Z" fill="url(#paint20_linear_907_4425)"/>
<path d="M123.494 3.17851C123.781 3.27977 124.164 3.41454 124.448 3.52303C125.486 3.95377 125.595 3.99892 126.275 4.33974L126.984 4.71761L127.176 4.82728C127.451 5.01105 127.821 5.25154 128.079 5.45915C127.862 5.37104 127.57 5.25594 127.349 5.1772C126.83 4.8856 126.132 4.50431 125.603 4.2312C125.133 3.97189 124.504 3.632 124.018 3.40479L123.494 3.17851Z" fill="url(#paint21_linear_907_4425)"/>
<path d="M124.824 4.2091C125.115 4.27497 125.504 4.36326 125.794 4.43643C126.331 4.72591 127.042 5.1226 127.569 5.43055C128.066 5.83734 128.724 6.38674 129.199 6.81915C129.309 7.08103 129.462 7.42985 129.541 7.70377C129.166 7.60185 128.666 7.46888 128.288 7.37718C127.709 6.98741 126.931 6.47616 126.34 6.10328C125.941 5.7101 125.406 5.18925 124.99 4.8146C124.948 4.63141 124.898 4.38184 124.824 4.2091Z" fill="url(#paint22_linear_907_4425)"/>
<path d="M124.799 6.17869C125.256 6.24789 125.865 6.34164 126.32 6.41968C126.918 6.80514 127.709 7.32877 128.295 7.73184C128.709 8.2594 129.255 8.96804 129.647 9.51295C129.588 9.8541 129.514 10.3111 129.431 10.6478C128.91 10.5472 128.214 10.4155 127.691 10.3267C127.059 9.85967 126.21 9.2448 125.566 8.79527C125.232 8.28177 124.782 7.59856 124.432 7.09561C124.546 6.82231 124.703 6.45965 124.799 6.17869Z" fill="url(#paint23_linear_907_4425)"/>
<path d="M123.356 9.01638C123.956 9.07422 124.756 9.15356 125.356 9.22176C126.005 9.6822 126.864 10.3048 127.501 10.7827C127.834 11.4156 128.273 12.2622 128.585 12.9065C128.375 13.3248 128.098 13.8833 127.876 14.2944C127.238 14.2099 126.387 14.0997 125.747 14.0271C125.08 13.5022 124.183 12.8112 123.502 12.3045C123.22 11.6838 122.841 10.8577 122.547 10.2426C122.791 9.87608 123.118 9.38803 123.356 9.01638Z" fill="url(#paint24_linear_907_4425)"/>
<path d="M120.795 12.7155C121.5 12.7494 122.439 12.7961 123.144 12.8411C123.826 13.3562 124.73 14.0523 125.399 14.5848C125.661 15.3089 126.005 16.276 126.244 17.0085C125.922 17.5014 125.493 18.1593 125.165 18.6496C124.458 18.5931 123.515 18.5215 122.807 18.4768C122.129 17.9135 121.216 17.1718 120.523 16.6266C120.277 15.9114 119.945 14.959 119.687 14.2486C120.019 13.7887 120.463 13.1754 120.795 12.7155Z" fill="url(#paint25_linear_907_4425)"/>
<path d="M117.562 17.2622C118.317 17.2603 119.323 17.2608 120.077 17.2717C120.767 17.8196 121.682 18.5579 122.361 19.1204C122.57 19.8807 122.845 20.8966 123.038 21.6614C122.666 22.167 122.17 22.8419 121.797 23.3473C121.084 23.3193 120.133 23.2851 119.419 23.269C118.749 22.7364 117.849 22.0346 117.167 21.5181C116.924 20.7756 116.599 19.7872 116.351 19.0465C116.714 18.5109 117.197 17.7968 117.562 17.2622Z" fill="url(#paint26_linear_907_4425)"/>
<path d="M114.258 22.2788C114.997 22.2463 115.982 22.206 116.721 22.1863C117.398 22.6987 118.297 23.3899 118.963 23.9176C119.155 24.6465 119.408 25.6201 119.586 26.3528C119.23 26.8494 118.756 27.5113 118.405 28.0107C117.748 28.014 116.872 28.0195 116.214 28.0334C115.578 27.5524 114.723 26.9191 114.075 26.4535C113.808 25.7438 113.451 24.7973 113.18 24.0887C113.501 23.5449 113.928 22.8181 114.258 22.2788Z" fill="url(#paint27_linear_907_4425)"/>
<path d="M121.885 2.71424C122.226 2.80262 122.679 2.92749 123.018 3.02607L123.419 3.18196C123.207 3.1295 122.924 3.06149 122.711 3.01487C122.306 2.8855 121.764 2.72025 121.354 2.6076L120.962 2.51084C121.24 2.56937 121.609 2.6462 121.885 2.71424Z" fill="url(#paint28_linear_907_4425)"/>
<path d="M120.63 2.5473C120.875 2.58189 121.201 2.62852 121.444 2.66753C121.866 2.79845 122.426 2.98172 122.842 3.12785C123.244 3.34729 123.776 3.64678 124.162 3.89243C124.21 4.05814 124.278 4.27963 124.294 4.45065C123.906 4.39157 123.389 4.3145 123 4.26205C122.506 4.02661 121.845 3.71744 121.346 3.49272C121.098 3.27931 120.766 2.99535 120.506 2.79723C120.546 2.72405 120.61 2.62834 120.63 2.5473Z" fill="url(#paint29_linear_907_4425)"/>
<path d="M119.812 3.58823C120.237 3.6164 120.804 3.65546 121.229 3.69106C121.739 3.92951 122.416 4.25365 122.921 4.50356C123.263 4.86907 123.715 5.36056 124.043 5.73901C123.927 6.00468 123.776 6.35961 123.646 6.61796C123.099 6.5658 122.369 6.49896 121.821 6.45568C121.246 6.13354 120.476 5.70825 119.896 5.39606C119.682 5.04318 119.398 4.5724 119.182 4.22078C119.371 4.03144 119.625 3.78003 119.812 3.58823Z" fill="url(#paint30_linear_907_4425)"/>
<path d="M117.675 5.69303C118.253 5.70106 119.025 5.7135 119.603 5.73121C120.194 6.05474 120.977 6.49107 121.562 6.82455C121.853 7.31906 122.238 7.9799 122.52 8.47955C122.271 8.8397 121.941 9.32075 121.688 9.67745C121.015 9.64657 120.119 9.60763 119.446 9.58791C118.805 9.19837 117.946 8.68419 117.299 8.3053C117.104 7.8249 116.844 7.18468 116.654 6.70319C116.96 6.39988 117.367 5.9947 117.675 5.69303Z" fill="url(#paint31_linear_907_4425)"/>
<path d="M114.582 8.84401C115.272 8.819 116.192 8.78767 116.882 8.77464C117.536 9.16239 118.406 9.68434 119.054 10.0827C119.311 10.6891 119.652 11.4982 119.902 12.107C119.566 12.5606 119.117 13.1651 118.781 13.6195C118.033 13.6212 117.036 13.6267 116.288 13.6404C115.601 13.2025 114.681 12.6229 113.986 12.1963C113.788 11.6043 113.524 10.815 113.332 10.2213C113.705 9.80706 114.077 9.0766 114.582 8.84401Z" fill="url(#paint32_linear_907_4425)"/>
<path d="M111.024 13.0036C111.77 12.9353 112.765 12.8482 113.513 12.7949C114.211 13.2285 115.138 13.8126 115.829 14.2575C116.076 14.9607 116.403 15.8985 116.644 16.6043C116.279 17.1411 115.791 17.8571 115.43 18.3973C114.668 18.4365 113.652 18.4918 112.891 18.5446C112.179 18.0843 111.227 17.4741 110.51 17.0208C110.279 16.3338 109.972 15.4166 109.748 14.7266C110.128 14.2076 110.632 13.5134 111.024 13.0036Z" fill="url(#paint33_linear_907_4425)"/>
<path d="M107.605 18.0864C108.341 17.9739 109.324 17.8274 110.063 17.7322C110.782 18.1812 111.737 18.785 112.45 19.2424C112.717 19.9677 113.073 20.9344 113.342 21.6592C113.019 22.2066 112.586 22.9358 112.273 23.4894C111.562 23.5603 110.615 23.6571 109.906 23.7423C109.195 23.3187 108.245 22.7579 107.529 22.3429C107.235 21.6501 106.846 20.726 106.568 20.0273C106.875 19.4425 107.281 18.6614 107.605 18.0864Z" fill="url(#paint34_linear_907_4425)"/>
<path d="M118.162 2.15899C118.763 2.19966 118.763 2.19966 119.061 2.22949C119.269 2.25253 119.547 2.28424 119.755 2.31097C119.886 2.34621 120.063 2.38211 120.19 2.4304C120.14 2.49154 120.074 2.5735 120.019 2.62968C119.694 2.60484 119.261 2.57295 118.936 2.55331C118.653 2.46441 118.276 2.34802 117.99 2.26783C117.98 2.23552 117.967 2.19243 117.956 2.16012C117.96 2.15675 117.966 2.15202 117.97 2.14865L118.162 2.15899Z" fill="url(#paint35_linear_907_4425)"/>
<path d="M116.641 2.33779C116.972 2.33633 117.414 2.33539 117.745 2.3399C118.045 2.43561 118.443 2.56732 118.74 2.671C118.892 2.87036 119.094 3.13707 119.244 3.33839C119.042 3.51612 118.773 3.75262 118.571 3.93035C118.076 3.92342 117.417 3.91543 116.923 3.91745C116.536 3.73894 116.019 3.50212 115.63 3.3272C115.63 3.13002 115.634 2.86444 115.67 2.67063C115.96 2.56753 116.337 2.3828 116.641 2.33779Z" fill="url(#paint36_linear_907_4425)"/>
<path d="M113.593 3.67116C114.082 3.63577 114.735 3.58937 115.225 3.56301C115.626 3.74958 116.161 3.99926 116.561 4.18868C116.686 4.53493 116.857 4.99589 116.992 5.33854C116.674 5.63103 116.25 6.02122 115.935 6.31694C115.309 6.34116 114.475 6.37595 113.85 6.41142C113.373 6.16334 112.736 5.83399 112.257 5.58877C112.252 5.24772 112.251 4.79273 112.281 4.45339C112.673 4.21633 113.156 3.8039 113.593 3.67116Z" fill="url(#paint37_linear_907_4425)"/>
<path d="M109.776 6.2435C110.367 6.16077 111.156 6.05302 111.748 5.98465C112.237 6.23832 112.889 6.57799 113.376 6.83379C113.5 7.3083 113.668 7.93936 113.806 8.40994C113.421 8.81499 112.907 9.35371 112.528 9.76458C111.822 9.82989 110.88 9.9212 110.175 10.0016C109.637 9.70598 108.92 9.30948 108.385 9.00892C108.361 8.54218 108.336 7.9199 108.348 7.45269C108.774 7.0873 109.263 6.46707 109.776 6.2435Z" fill="url(#paint38_linear_907_4425)"/>
<path d="M105.84 9.97719C106.445 9.84426 107.253 9.67039 107.862 9.55497C108.401 9.86177 109.121 10.2668 109.662 10.5672C109.812 11.1524 110.016 11.9316 110.18 12.513C109.789 13.0228 109.265 13.7011 108.886 14.2209C108.177 14.3323 107.233 14.4853 106.527 14.6172C105.98 14.2827 105.253 13.8345 104.711 13.4937C104.641 12.9196 104.554 12.1534 104.517 11.5764C104.91 11.0937 105.306 10.2945 105.84 9.97719Z" fill="url(#paint39_linear_907_4425)"/>
<path d="M102.393 14.7514C102.952 14.5701 103.699 14.3346 104.265 14.1741C104.807 14.5186 105.533 14.9749 106.079 15.3131C106.272 15.9912 106.534 16.8946 106.747 17.5678C106.435 18.1522 106.016 18.929 105.723 19.5226C105.101 19.6711 104.272 19.873 103.656 20.0415C103.114 19.6993 102.394 19.2368 101.86 18.8825C101.706 18.226 101.509 17.348 101.389 16.6834C101.684 16.1012 101.89 15.1649 102.393 14.7514Z" fill="url(#paint40_linear_907_4425)"/>
<path d="M116.14 2.14573C116.326 2.13974 116.573 2.13125 116.758 2.12827C116.645 2.15366 116.489 2.19223 116.396 2.26123C116.088 2.34403 115.676 2.45232 115.373 2.55273C114.989 2.57836 114.476 2.61379 114.092 2.64768C113.99 2.59496 113.854 2.52414 113.762 2.45728L114.344 2.30433C115.112 2.21629 115.497 2.17205 116.14 2.14573Z" fill="url(#paint41_linear_907_4425)"/>
<path d="M112.159 2.7758C112.483 2.7176 112.914 2.6425 113.238 2.59338C113.343 2.66883 113.492 2.75801 113.605 2.81932C113.471 3.01002 113.301 3.27364 113.21 3.48851C112.804 3.71009 112.261 4.00339 111.862 4.23837C111.372 4.30803 110.719 4.40366 110.231 4.48544C110.057 4.36326 109.828 4.19418 109.669 4.05319C109.942 3.81935 110.316 3.51561 110.618 3.321C111.079 3.15227 111.683 2.89232 112.159 2.7758Z" fill="url(#paint42_linear_907_4425)"/>
<path d="M107.793 4.73549C108.181 4.62126 108.699 4.47279 109.09 4.37161C109.259 4.51942 109.494 4.70332 109.677 4.83228C109.553 5.17108 109.398 5.62731 109.317 5.9783C108.88 6.33002 108.296 6.79727 107.871 7.16273C107.343 7.28194 106.641 7.44394 106.117 7.57922C105.897 7.40124 105.609 7.15644 105.407 6.95771C105.638 6.58845 105.955 6.10101 106.225 5.76001C106.693 5.44777 107.28 4.96211 107.793 4.73549Z" fill="url(#paint43_linear_907_4425)"/>
<path d="M103.531 7.99177C103.923 7.82046 104.449 7.59723 104.848 7.44452C105.057 7.64685 105.348 7.90454 105.574 8.08755C105.488 8.55319 105.385 9.17702 105.34 9.64868C104.937 10.1193 104.396 10.7436 104.01 11.2285C103.504 11.3952 102.831 11.6227 102.332 11.811C102.086 11.5888 101.764 11.2842 101.538 11.0414C101.701 10.5568 101.928 9.91305 102.134 9.44593C102.549 9.00556 103.03 8.32933 103.531 7.99177Z" fill="url(#paint44_linear_907_4425)"/>
<path d="M99.9175 12.3904C100.26 12.1667 100.72 11.8747 101.076 11.6746C101.306 11.92 101.627 12.2358 101.877 12.4614C101.862 13.0343 101.852 13.7998 101.876 14.3726C101.569 14.9447 101.153 15.7047 100.87 16.2894C100.437 16.4981 99.8616 16.7801 99.4409 17.0131C99.1807 16.7559 98.8417 16.4041 98.604 16.1252C98.6694 15.5471 98.7664 14.7771 98.8782 14.2063C99.1841 13.658 99.48 12.8384 99.9175 12.3904Z" fill="url(#paint45_linear_907_4425)"/>
<path d="M111.192 2.97153C111.605 2.85819 112.158 2.71371 112.575 2.61563L112.201 2.71994C111.728 2.86806 111.095 3.06116 110.629 3.23164C110.326 3.31714 109.923 3.43442 109.624 3.53143L109.787 3.44498C110.207 3.30016 110.765 3.09558 111.192 2.97153Z" fill="url(#paint46_linear_907_4425)"/>
<path d="M107.67 4.38418C108.128 4.16589 108.738 3.87505 109.204 3.67621L109.002 3.7972C108.621 4.02183 108.116 4.32987 107.759 4.59263C107.28 4.88737 106.639 5.27612 106.172 5.59068C105.847 5.73389 105.415 5.92692 105.098 6.08653C105.178 5.96625 105.306 5.81822 105.416 5.72538C106.081 5.30362 106.97 4.74288 107.67 4.38418Z" fill="url(#paint47_linear_907_4425)"/>
<path d="M102.116 8.52913C103.57 7.11467 103.626 7.05942 104.678 6.25453L104.838 6.13562C104.727 6.24185 104.588 6.39708 104.514 6.53212C104.183 6.89506 103.747 7.38803 103.451 7.78113C103.025 8.20697 102.452 8.7709 102.044 9.21413C101.75 9.41102 101.361 9.67748 101.083 9.89602C101.138 9.74344 101.227 9.54335 101.32 9.41005L102.116 8.52913Z" fill="url(#paint48_linear_907_4425)"/>
<path d="M98.2955 14.1165C99.2764 12.21 99.2951 12.1737 99.9791 11.1637L100.826 10.0127C100.747 10.151 100.647 10.3427 100.608 10.4966C100.354 10.9773 100.024 11.625 99.8128 12.126C99.4934 12.6618 99.0617 13.3748 98.768 13.9257C98.5502 14.1677 98.2639 14.4967 98.0751 14.7623C98.1047 14.6455 98.1296 14.4835 98.1781 14.373L98.2955 14.1165Z" fill="url(#paint49_linear_907_4425)"/>
<defs>
<linearGradient id="paint0_linear_907_4425" x1="180.262" y1="53.5359" x2="142.15" y2="21.7211" gradientUnits="userSpaceOnUse">
<stop stop-color="#33CC94"/>
<stop offset="1" stop-color="#37CD9D"/>
</linearGradient>
<linearGradient id="paint1_linear_907_4425" x1="207.172" y1="60.8538" x2="165.095" y2="7.55543" gradientUnits="userSpaceOnUse">
<stop stop-color="#33CC94"/>
<stop offset="1" stop-color="#37CD9D"/>
</linearGradient>
<linearGradient id="paint2_linear_907_4425" x1="222.909" y1="61.8137" x2="194.556" y2="4.17481" gradientUnits="userSpaceOnUse">
<stop stop-color="#33CC94"/>
<stop offset="1" stop-color="#37CD9D"/>
</linearGradient>
<linearGradient id="paint3_linear_907_4425" x1="232.788" y1="61.0322" x2="219.413" y2="12.7825" gradientUnits="userSpaceOnUse">
<stop stop-color="#33CC94"/>
<stop offset="1" stop-color="#37CD9D"/>
</linearGradient>
<linearGradient id="paint4_linear_907_4425" x1="163.461" y1="53.2147" x2="130.386" y2="39.7752" gradientUnits="userSpaceOnUse">
<stop stop-color="#33CC94"/>
<stop offset="1" stop-color="#37CD9D"/>
</linearGradient>
<linearGradient id="paint5_linear_907_4425" x1="186.895" y1="57.4011" x2="139.458" y2="21.2648" gradientUnits="userSpaceOnUse">
<stop stop-color="#33CC94"/>
<stop offset="1" stop-color="#37CD9D"/>
</linearGradient>
<linearGradient id="paint6_linear_907_4425" x1="202.158" y1="59.8346" x2="157.718" y2="8.37065" gradientUnits="userSpaceOnUse">
<stop stop-color="#33CC94"/>
<stop offset="1" stop-color="#37CD9D"/>
</linearGradient>
<linearGradient id="paint7_linear_907_4425" x1="208.91" y1="60.3607" x2="175.838" y2="5.37279" gradientUnits="userSpaceOnUse">
<stop stop-color="#33CC94"/>
<stop offset="1" stop-color="#37CD9D"/>
</linearGradient>
<linearGradient id="paint8_linear_907_4425" x1="199.359" y1="39.3119" x2="152.125" y2="-5.89257" gradientUnits="userSpaceOnUse">
<stop stop-color="#33CC94"/>
<stop offset="1" stop-color="#37CD9D"/>
</linearGradient>
<linearGradient id="paint9_linear_907_4425" x1="191.729" y1="45.2426" x2="141.368" y2="7.9259" gradientUnits="userSpaceOnUse">
<stop stop-color="#33CC94"/>
<stop offset="1" stop-color="#37CD9D"/>
</linearGradient>
<linearGradient id="paint10_linear_907_4425" x1="202.75" y1="51.6537" x2="147.032" y2="4.56658" gradientUnits="userSpaceOnUse">
<stop stop-color="#33CC94"/>
<stop offset="1" stop-color="#37CD9D"/>
</linearGradient>
<linearGradient id="paint11_linear_907_4425" x1="209.646" y1="55.5057" x2="155" y2="0.592349" gradientUnits="userSpaceOnUse">
<stop stop-color="#33CC94"/>
<stop offset="1" stop-color="#37CD9D"/>
</linearGradient>
<linearGradient id="paint12_linear_907_4425" x1="213.164" y1="58.1269" x2="163.553" y2="-1.5218" gradientUnits="userSpaceOnUse">
<stop stop-color="#33CC94"/>
<stop offset="1" stop-color="#37CD9D"/>
</linearGradient>
<linearGradient id="paint13_linear_907_4425" x1="208.646" y1="59.1824" x2="166.515" y2="1.1419" gradientUnits="userSpaceOnUse">
<stop stop-color="#33CC94"/>
<stop offset="1" stop-color="#37CD9D"/>
</linearGradient>
<linearGradient id="paint14_linear_907_4425" x1="232.338" y1="28.2322" x2="211.313" y2="-26.3659" gradientUnits="userSpaceOnUse">
<stop stop-color="#33CC94"/>
<stop offset="1" stop-color="#37CD9D"/>
</linearGradient>
<linearGradient id="paint15_linear_907_4425" x1="232.569" y1="34.4012" x2="198.712" y2="-28.795" gradientUnits="userSpaceOnUse">
<stop stop-color="#33CC94"/>
<stop offset="1" stop-color="#37CD9D"/>
</linearGradient>
<linearGradient id="paint16_linear_907_4425" x1="229.484" y1="39.9839" x2="185.962" y2="-25.8206" gradientUnits="userSpaceOnUse">
<stop stop-color="#33CC94"/>
<stop offset="1" stop-color="#37CD9D"/>
</linearGradient>
<linearGradient id="paint17_linear_907_4425" x1="241.887" y1="47.2025" x2="193.386" y2="-27.4374" gradientUnits="userSpaceOnUse">
<stop stop-color="#33CC94"/>
<stop offset="1" stop-color="#37CD9D"/>
</linearGradient>
<linearGradient id="paint18_linear_907_4425" x1="246.56" y1="53.0431" x2="196.249" y2="-25.9631" gradientUnits="userSpaceOnUse">
<stop stop-color="#33CC94"/>
<stop offset="1" stop-color="#37CD9D"/>
</linearGradient>
<linearGradient id="paint19_linear_907_4425" x1="242.641" y1="56.3447" x2="195.889" y2="-20.9766" gradientUnits="userSpaceOnUse">
<stop stop-color="#33CC94"/>
<stop offset="1" stop-color="#37CD9D"/>
</linearGradient>
<linearGradient id="paint20_linear_907_4425" x1="230.235" y1="58.4587" x2="186.639" y2="-13.2243" gradientUnits="userSpaceOnUse">
<stop stop-color="#33CC94"/>
<stop offset="1" stop-color="#37CD9D"/>
</linearGradient>
<linearGradient id="paint21_linear_907_4425" x1="225.271" y1="19.7556" x2="219.382" y2="-13.4933" gradientUnits="userSpaceOnUse">
<stop stop-color="#33CC94"/>
<stop offset="1" stop-color="#37CD9D"/>
</linearGradient>
<linearGradient id="paint22_linear_907_4425" x1="231.395" y1="25.8616" x2="215.047" y2="-24.5484" gradientUnits="userSpaceOnUse">
<stop stop-color="#33CC94"/>
<stop offset="1" stop-color="#37CD9D"/>
</linearGradient>
<linearGradient id="paint23_linear_907_4425" x1="239.234" y1="32.3445" x2="213.459" y2="-29.9741" gradientUnits="userSpaceOnUse">
<stop stop-color="#33CC94"/>
<stop offset="1" stop-color="#37CD9D"/>
</linearGradient>
<linearGradient id="paint24_linear_907_4425" x1="255.175" y1="39.9495" x2="223.215" y2="-33.8187" gradientUnits="userSpaceOnUse">
<stop stop-color="#33CC94"/>
<stop offset="1" stop-color="#37CD9D"/>
</linearGradient>
<linearGradient id="paint25_linear_907_4425" x1="263.349" y1="47.6623" x2="224.106" y2="-35.6534" gradientUnits="userSpaceOnUse">
<stop stop-color="#33CC94"/>
<stop offset="1" stop-color="#37CD9D"/>
</linearGradient>
<linearGradient id="paint26_linear_907_4425" x1="262.388" y1="53.7961" x2="219.059" y2="-33.1569" gradientUnits="userSpaceOnUse">
<stop stop-color="#33CC94"/>
<stop offset="1" stop-color="#37CD9D"/>
</linearGradient>
<linearGradient id="paint27_linear_907_4425" x1="252.594" y1="57.4814" x2="209.954" y2="-26.3114" gradientUnits="userSpaceOnUse">
<stop stop-color="#33CC94"/>
<stop offset="1" stop-color="#37CD9D"/>
</linearGradient>
<linearGradient id="paint28_linear_907_4425" x1="174.595" y1="9.18683" x2="174.331" y2="0.886278" gradientUnits="userSpaceOnUse">
<stop stop-color="#33CC94"/>
<stop offset="1" stop-color="#37CD9D"/>
</linearGradient>
<linearGradient id="paint29_linear_907_4425" x1="204.158" y1="16.3091" x2="199.025" y2="-11.6255" gradientUnits="userSpaceOnUse">
<stop stop-color="#33CC94"/>
<stop offset="1" stop-color="#37CD9D"/>
</linearGradient>
<linearGradient id="paint30_linear_907_4425" x1="225.114" y1="23.7534" x2="212.194" y2="-22.1861" gradientUnits="userSpaceOnUse">
<stop stop-color="#33CC94"/>
<stop offset="1" stop-color="#37CD9D"/>
</linearGradient>
<linearGradient id="paint31_linear_907_4425" x1="244.201" y1="32.1874" x2="222.377" y2="-30.6022" gradientUnits="userSpaceOnUse">
<stop stop-color="#33CC94"/>
<stop offset="1" stop-color="#37CD9D"/>
</linearGradient>
<linearGradient id="paint32_linear_907_4425" x1="255.814" y1="40.6024" x2="224.868" y2="-35.8293" gradientUnits="userSpaceOnUse">
<stop stop-color="#33CC94"/>
<stop offset="1" stop-color="#37CD9D"/>
</linearGradient>
<linearGradient id="paint33_linear_907_4425" x1="258.9" y1="48.637" x2="219.025" y2="-37.2368" gradientUnits="userSpaceOnUse">
<stop stop-color="#33CC94"/>
<stop offset="1" stop-color="#37CD9D"/>
</linearGradient>
<linearGradient id="paint34_linear_907_4425" x1="252.589" y1="54.147" x2="209.637" y2="-32.5425" gradientUnits="userSpaceOnUse">
<stop stop-color="#33CC94"/>
<stop offset="1" stop-color="#37CD9D"/>
</linearGradient>
<linearGradient id="paint35_linear_907_4425" x1="166.073" y1="7.87818" x2="165.992" y2="1.56725" gradientUnits="userSpaceOnUse">
<stop stop-color="#33CC94"/>
<stop offset="1" stop-color="#37CD9D"/>
</linearGradient>
<linearGradient id="paint36_linear_907_4425" x1="192.921" y1="15.6738" x2="186.473" y2="-13.3136" gradientUnits="userSpaceOnUse">
<stop stop-color="#33CC94"/>
<stop offset="1" stop-color="#37CD9D"/>
</linearGradient>
<linearGradient id="paint37_linear_907_4425" x1="213.706" y1="24.1498" x2="197.443" y2="-24.5907" gradientUnits="userSpaceOnUse">
<stop stop-color="#33CC94"/>
<stop offset="1" stop-color="#37CD9D"/>
</linearGradient>
<linearGradient id="paint38_linear_907_4425" x1="225.494" y1="32.5586" x2="198.727" y2="-31.3949" gradientUnits="userSpaceOnUse">
<stop stop-color="#33CC94"/>
<stop offset="1" stop-color="#37CD9D"/>
</linearGradient>
<linearGradient id="paint39_linear_907_4425" x1="225.693" y1="40.4506" x2="187.899" y2="-32.8049" gradientUnits="userSpaceOnUse">
<stop stop-color="#33CC94"/>
<stop offset="1" stop-color="#37CD9D"/>
</linearGradient>
<linearGradient id="paint40_linear_907_4425" x1="215.719" y1="47.3232" x2="168.362" y2="-27.4041" gradientUnits="userSpaceOnUse">
<stop stop-color="#33CC94"/>
<stop offset="1" stop-color="#37CD9D"/>
</linearGradient>
<linearGradient id="paint41_linear_907_4425" x1="176.898" y1="10.6503" x2="175.638" y2="-3.51346" gradientUnits="userSpaceOnUse">
<stop stop-color="#33CC94"/>
<stop offset="1" stop-color="#37CD9D"/>
</linearGradient>
<linearGradient id="paint42_linear_907_4425" x1="190.706" y1="18.1314" x2="179.839" y2="-18.2664" gradientUnits="userSpaceOnUse">
<stop stop-color="#33CC94"/>
<stop offset="1" stop-color="#37CD9D"/>
</linearGradient>
<linearGradient id="paint43_linear_907_4425" x1="191.446" y1="25.4196" x2="166.887" y2="-25.1233" gradientUnits="userSpaceOnUse">
<stop stop-color="#33CC94"/>
<stop offset="1" stop-color="#37CD9D"/>
</linearGradient>
<linearGradient id="paint44_linear_907_4425" x1="180.613" y1="32.1854" x2="142.428" y2="-21.1296" gradientUnits="userSpaceOnUse">
<stop stop-color="#33CC94"/>
<stop offset="1" stop-color="#37CD9D"/>
</linearGradient>
<linearGradient id="paint45_linear_907_4425" x1="163.512" y1="38.6124" x2="116.941" y2="-6.25876" gradientUnits="userSpaceOnUse">
<stop stop-color="#33CC94"/>
<stop offset="1" stop-color="#37CD9D"/>
</linearGradient>
<linearGradient id="paint46_linear_907_4425" x1="170.538" y1="12.5653" x2="166.4" y2="-8.55361" gradientUnits="userSpaceOnUse">
<stop stop-color="#33CC94"/>
<stop offset="1" stop-color="#37CD9D"/>
</linearGradient>
<linearGradient id="paint47_linear_907_4425" x1="187.285" y1="21.6601" x2="169.944" y2="-21.9235" gradientUnits="userSpaceOnUse">
<stop stop-color="#33CC94"/>
<stop offset="1" stop-color="#37CD9D"/>
</linearGradient>
<linearGradient id="paint48_linear_907_4425" x1="172.758" y1="28.2561" x2="138.779" y2="-19.8728" gradientUnits="userSpaceOnUse">
<stop stop-color="#33CC94"/>
<stop offset="1" stop-color="#37CD9D"/>
</linearGradient>
<linearGradient id="paint49_linear_907_4425" x1="146.127" y1="33.4928" x2="105.721" y2="1.47992" gradientUnits="userSpaceOnUse">
<stop stop-color="#33CC94"/>
<stop offset="1" stop-color="#37CD9D"/>
</linearGradient>
</defs>
</svg>
