<svg width="256" height="21" viewBox="0 0 256 21" fill="none" xmlns="http://www.w3.org/2000/svg">
<path d="M3.04249 0.599999V14.152H10.0825V16H0.842492V0.599999H3.04249ZM17.0211 16.154C15.9651 16.154 15.0264 15.912 14.2051 15.428C13.3984 14.9293 12.7604 14.2473 12.2911 13.382C11.8364 12.5167 11.6091 11.5267 11.6091 10.412C11.6091 9.34133 11.8364 8.388 12.2911 7.552C12.7458 6.716 13.3691 6.056 14.1611 5.572C14.9678 5.088 15.8771 4.846 16.8891 4.846C17.9158 4.846 18.8251 5.07333 19.6171 5.528C20.4091 5.968 21.0251 6.59133 21.4651 7.398C21.9051 8.19 22.1178 9.10667 22.1031 10.148C22.1031 10.324 22.0958 10.5073 22.0811 10.698C22.0664 10.874 22.0444 11.072 22.0151 11.292H13.8751C13.9191 11.8787 14.0804 12.3993 14.3591 12.854C14.6524 13.294 15.0191 13.6387 15.4591 13.888C15.9138 14.1373 16.4271 14.262 16.9991 14.262C17.7324 14.262 18.3704 14.1227 18.9131 13.844C19.4558 13.5507 19.8371 13.162 20.0571 12.678L21.8611 13.316C21.4211 14.2107 20.7758 14.9073 19.9251 15.406C19.0891 15.9047 18.1211 16.154 17.0211 16.154ZM19.8371 9.51C19.8371 8.982 19.7051 8.50533 19.4411 8.08C19.1771 7.65467 18.8178 7.32467 18.3631 7.09C17.9231 6.84067 17.4244 6.716 16.8671 6.716C16.3684 6.716 15.9064 6.84067 15.4811 7.09C15.0704 7.32467 14.7184 7.65467 14.4251 8.08C14.1464 8.49067 13.9704 8.96733 13.8971 9.51H19.8371ZM24.9823 5V1.92H27.0723V5H29.8223V6.848H27.0723V12.26C27.0723 12.9347 27.2043 13.4113 27.4683 13.69C27.747 13.9687 28.0917 14.13 28.5023 14.174C28.9277 14.2033 29.3677 14.1887 29.8223 14.13V15.912C29.221 16.044 28.627 16.0807 28.0403 16.022C27.4683 15.978 26.9477 15.8167 26.4783 15.538C26.0237 15.2593 25.657 14.856 25.3783 14.328C25.1143 13.7853 24.9823 13.096 24.9823 12.26V6.848H23.3983V5H24.9823ZM31.4376 5.704L32.7576 0.599999H35.1556L32.9776 5.704H31.4376ZM39.1744 12.524C39.2771 12.964 39.4531 13.3087 39.7024 13.558C39.9517 13.8073 40.2451 13.9907 40.5824 14.108C40.9344 14.2107 41.3011 14.262 41.6824 14.262C42.3424 14.262 42.8557 14.13 43.2224 13.866C43.5891 13.602 43.7724 13.272 43.7724 12.876C43.7724 12.5387 43.6551 12.2747 43.4204 12.084C43.2004 11.8787 42.8997 11.7173 42.5184 11.6C42.1517 11.4827 41.7557 11.3727 41.3304 11.27C40.9491 11.1673 40.5311 11.05 40.0764 10.918C39.6364 10.786 39.2184 10.61 38.8224 10.39C38.4411 10.1553 38.1257 9.862 37.8764 9.51C37.6271 9.14333 37.5024 8.68133 37.5024 8.124C37.5024 7.464 37.6784 6.892 38.0304 6.408C38.3971 5.90933 38.8957 5.528 39.5264 5.264C40.1717 4.98533 40.8977 4.846 41.7044 4.846C42.6431 4.846 43.4644 5.05133 44.1684 5.462C44.8871 5.858 45.4077 6.45933 45.7304 7.266L43.8604 7.882C43.7577 7.60333 43.5891 7.376 43.3544 7.2C43.1197 7.024 42.8484 6.90667 42.5404 6.848C42.2471 6.77467 41.9537 6.738 41.6604 6.738C41.1031 6.738 40.6411 6.848 40.2744 7.068C39.9077 7.288 39.7244 7.61067 39.7244 8.036C39.7244 8.27067 39.7831 8.46867 39.9004 8.63C40.0177 8.77667 40.1791 8.90133 40.3844 9.004C40.6044 9.092 40.8611 9.17267 41.1544 9.246C41.4477 9.31933 41.7631 9.4 42.1004 9.488C42.5404 9.62 42.9877 9.76667 43.4424 9.928C43.8971 10.0747 44.3151 10.2653 44.6964 10.5C45.0777 10.7347 45.3857 11.0427 45.6204 11.424C45.8551 11.8053 45.9797 12.2747 45.9944 12.832C45.9944 13.4773 45.8111 14.0493 45.4444 14.548C45.0924 15.0467 44.5864 15.4427 43.9264 15.736C43.2811 16.0147 42.5111 16.154 41.6164 16.154C40.5311 16.154 39.6071 15.912 38.8444 15.428C38.0817 14.944 37.5684 14.196 37.3044 13.184L39.1744 12.524ZM60.1127 0.599999C61.7847 0.599999 63.2221 0.915333 64.4247 1.546C65.6421 2.17667 66.5807 3.07133 67.2407 4.23C67.9154 5.38867 68.2527 6.76733 68.2527 8.366C68.2527 9.95 67.9154 11.314 67.2407 12.458C66.5807 13.5873 65.6421 14.46 64.4247 15.076C63.2221 15.692 61.7847 16 60.1127 16H54.8327V0.599999H60.1127ZM60.1127 14.152C62.0487 14.152 63.5154 13.646 64.5127 12.634C65.5247 11.6073 66.0307 10.1847 66.0307 8.366C66.0307 6.518 65.5247 5.07333 64.5127 4.032C63.5154 2.976 62.0487 2.448 60.1127 2.448H57.0327V14.152H60.1127ZM71.0361 5H73.1261V16H71.0361V5ZM72.0921 3.064C71.6961 3.064 71.3661 2.932 71.1021 2.668C70.8381 2.404 70.7061 2.08133 70.7061 1.7C70.7061 1.304 70.8381 0.973999 71.1021 0.709999C71.3661 0.431332 71.6961 0.291999 72.0921 0.291999C72.4734 0.291999 72.7961 0.431332 73.0601 0.709999C73.3387 0.973999 73.4781 1.304 73.4781 1.7C73.4781 2.08133 73.3387 2.404 73.0601 2.668C72.7961 2.932 72.4734 3.064 72.0921 3.064ZM77.7808 5L80.9488 13.778L84.1388 5H86.3388L82.0488 16H79.8048L75.5368 5H77.7808ZM92.9898 16.154C91.9338 16.154 90.9952 15.912 90.1738 15.428C89.3672 14.9293 88.7292 14.2473 88.2598 13.382C87.8052 12.5167 87.5778 11.5267 87.5778 10.412C87.5778 9.34133 87.8052 8.388 88.2598 7.552C88.7145 6.716 89.3378 6.056 90.1298 5.572C90.9365 5.088 91.8458 4.846 92.8578 4.846C93.8845 4.846 94.7938 5.07333 95.5858 5.528C96.3778 5.968 96.9938 6.59133 97.4338 7.398C97.8738 8.19 98.0865 9.10667 98.0718 10.148C98.0718 10.324 98.0645 10.5073 98.0498 10.698C98.0352 10.874 98.0132 11.072 97.9838 11.292H89.8438C89.8878 11.8787 90.0492 12.3993 90.3278 12.854C90.6212 13.294 90.9878 13.6387 91.4278 13.888C91.8825 14.1373 92.3958 14.262 92.9678 14.262C93.7012 14.262 94.3392 14.1227 94.8818 13.844C95.4245 13.5507 95.8058 13.162 96.0258 12.678L97.8298 13.316C97.3898 14.2107 96.7445 14.9073 95.8938 15.406C95.0578 15.9047 94.0898 16.154 92.9898 16.154ZM95.8058 9.51C95.8058 8.982 95.6738 8.50533 95.4098 8.08C95.1458 7.65467 94.7865 7.32467 94.3318 7.09C93.8918 6.84067 93.3932 6.716 92.8358 6.716C92.3372 6.716 91.8752 6.84067 91.4498 7.09C91.0392 7.32467 90.6872 7.65467 90.3938 8.08C90.1152 8.49067 89.9392 8.96733 89.8658 9.51H95.8058ZM106.932 0.599999H109.132V16H106.932V0.599999ZM112.45 5H114.342L114.474 6.276C114.826 5.82133 115.274 5.46933 115.816 5.22C116.359 4.97067 116.96 4.846 117.62 4.846C118.471 4.846 119.204 5.02933 119.82 5.396C120.451 5.748 120.935 6.276 121.272 6.98C121.624 7.684 121.8 8.564 121.8 9.62V16H119.732V9.884C119.732 8.85733 119.512 8.08 119.072 7.552C118.647 7.00933 118.024 6.738 117.202 6.738C116.352 6.738 115.692 7.01667 115.222 7.574C114.753 8.11667 114.518 8.92333 114.518 9.994V16H112.45V5ZM125.486 5V1.92H127.576V5H130.326V6.848H127.576V12.26C127.576 12.9347 127.708 13.4113 127.972 13.69C128.251 13.9687 128.596 14.13 129.006 14.174C129.432 14.2033 129.872 14.1887 130.326 14.13V15.912C129.725 16.044 129.131 16.0807 128.544 16.022C127.972 15.978 127.452 15.8167 126.982 15.538C126.528 15.2593 126.161 14.856 125.882 14.328C125.618 13.7853 125.486 13.096 125.486 12.26V6.848H123.902V5H125.486ZM137.464 16.154C136.422 16.154 135.484 15.9267 134.648 15.472C133.826 15.0027 133.181 14.35 132.712 13.514C132.242 12.6633 132.008 11.666 132.008 10.522C132.008 9.36333 132.25 8.35867 132.734 7.508C133.218 6.65733 133.878 6.00467 134.714 5.55C135.55 5.08067 136.488 4.846 137.53 4.846C138.571 4.846 139.51 5.08067 140.346 5.55C141.196 6.00467 141.864 6.65733 142.348 7.508C142.832 8.344 143.074 9.334 143.074 10.478C143.074 11.6367 142.824 12.6413 142.326 13.492C141.842 14.3427 141.174 15.0027 140.324 15.472C139.473 15.9267 138.52 16.154 137.464 16.154ZM137.442 14.262C138.028 14.262 138.578 14.13 139.092 13.866C139.605 13.5873 140.023 13.1693 140.346 12.612C140.683 12.0547 140.852 11.3433 140.852 10.478C140.852 9.62733 140.69 8.93067 140.368 8.388C140.06 7.83067 139.649 7.42 139.136 7.156C138.622 6.87733 138.072 6.738 137.486 6.738C136.914 6.738 136.378 6.87733 135.88 7.156C135.396 7.42 135 7.83067 134.692 8.388C134.384 8.94533 134.23 9.65667 134.23 10.522C134.23 11.3727 134.376 12.0767 134.67 12.634C134.978 13.1767 135.374 13.5873 135.858 13.866C136.342 14.13 136.87 14.262 137.442 14.262ZM151.063 0.599999H162.877V2.448H158.081V16H155.881V2.448H151.063V0.599999ZM165.323 0.159999H167.391V6.21C167.743 5.78467 168.198 5.45467 168.755 5.22C169.313 4.97067 169.929 4.846 170.603 4.846C171.425 4.846 172.143 5.02933 172.759 5.396C173.39 5.748 173.881 6.28333 174.233 7.002C174.585 7.706 174.761 8.586 174.761 9.642V16H172.583V9.906C172.583 8.87933 172.371 8.09467 171.945 7.552C171.52 7.00933 170.897 6.738 170.075 6.738C169.225 6.738 168.565 7.01667 168.095 7.574C167.626 8.13133 167.391 8.94533 167.391 10.016V16H165.323V0.159999ZM182.537 16.154C181.481 16.154 180.542 15.912 179.721 15.428C178.914 14.9293 178.276 14.2473 177.807 13.382C177.352 12.5167 177.125 11.5267 177.125 10.412C177.125 9.34133 177.352 8.388 177.807 7.552C178.261 6.716 178.885 6.056 179.677 5.572C180.483 5.088 181.393 4.846 182.405 4.846C183.431 4.846 184.341 5.07333 185.133 5.528C185.925 5.968 186.541 6.59133 186.981 7.398C187.421 8.19 187.633 9.10667 187.619 10.148C187.619 10.324 187.611 10.5073 187.597 10.698C187.582 10.874 187.56 11.072 187.531 11.292H179.391C179.435 11.8787 179.596 12.3993 179.875 12.854C180.168 13.294 180.535 13.6387 180.975 13.888C181.429 14.1373 181.943 14.262 182.515 14.262C183.248 14.262 183.886 14.1227 184.429 13.844C184.971 13.5507 185.353 13.162 185.573 12.678L187.377 13.316C186.937 14.2107 186.291 14.9073 185.441 15.406C184.605 15.9047 183.637 16.154 182.537 16.154ZM185.353 9.51C185.353 8.982 185.221 8.50533 184.957 8.08C184.693 7.65467 184.333 7.32467 183.879 7.09C183.439 6.84067 182.94 6.716 182.383 6.716C181.884 6.716 181.422 6.84067 180.997 7.09C180.586 7.32467 180.234 7.65467 179.941 8.08C179.662 8.49067 179.486 8.96733 179.413 9.51H185.353ZM197.799 11.93C197.887 12.3407 198.063 12.722 198.327 13.074C198.606 13.426 198.98 13.712 199.449 13.932C199.919 14.152 200.498 14.262 201.187 14.262C202.214 14.262 202.969 14.0273 203.453 13.558C203.952 13.074 204.201 12.5093 204.201 11.864C204.201 11.336 204.047 10.9033 203.739 10.566C203.446 10.214 203.035 9.92067 202.507 9.686C201.994 9.43667 201.4 9.21667 200.725 9.026C200.139 8.85 199.559 8.66667 198.987 8.476C198.43 8.27067 197.924 8.02133 197.469 7.728C197.015 7.42 196.655 7.03133 196.391 6.562C196.127 6.078 195.995 5.47667 195.995 4.758C195.995 3.86333 196.208 3.09333 196.633 2.448C197.059 1.80267 197.653 1.31133 198.415 0.973999C199.193 0.622 200.087 0.446 201.099 0.446C201.95 0.446 202.713 0.570666 203.387 0.819999C204.062 1.05467 204.627 1.39933 205.081 1.854C205.551 2.294 205.895 2.82933 206.115 3.46L204.113 4.186C204.025 3.86333 203.842 3.56267 203.563 3.284C203.285 2.99067 202.933 2.756 202.507 2.58C202.082 2.404 201.605 2.316 201.077 2.316C200.535 2.30133 200.043 2.38933 199.603 2.58C199.178 2.756 198.833 3.01267 198.569 3.35C198.32 3.68733 198.195 4.09067 198.195 4.56C198.195 5.07333 198.342 5.47667 198.635 5.77C198.929 6.06333 199.317 6.30533 199.801 6.496C200.3 6.68667 200.843 6.87 201.429 7.046C202.045 7.23667 202.647 7.442 203.233 7.662C203.82 7.882 204.348 8.16067 204.817 8.498C205.301 8.83533 205.69 9.26067 205.983 9.774C206.277 10.2727 206.423 10.9033 206.423 11.666C206.423 12.4873 206.233 13.2353 205.851 13.91C205.47 14.5847 204.891 15.1273 204.113 15.538C203.351 15.9487 202.39 16.154 201.231 16.154C200.278 16.154 199.42 16.0073 198.657 15.714C197.895 15.4207 197.264 15.0173 196.765 14.504C196.281 13.976 195.959 13.3673 195.797 12.678L197.799 11.93ZM210.892 14.13L211.112 14.064V20.4H209.044V5H210.936L211.09 6.65C211.442 6.15133 211.926 5.726 212.542 5.374C213.173 5.022 213.935 4.846 214.83 4.846C215.798 4.846 216.656 5.08067 217.404 5.55C218.152 6.01933 218.739 6.67933 219.164 7.53C219.604 8.366 219.824 9.356 219.824 10.5C219.824 11.6293 219.611 12.6193 219.186 13.47C218.775 14.3207 218.196 14.9807 217.448 15.45C216.7 15.9193 215.827 16.154 214.83 16.154C213.877 16.154 213.063 15.9633 212.388 15.582C211.728 15.186 211.229 14.702 210.892 14.13ZM217.58 10.5C217.58 9.37067 217.279 8.46133 216.678 7.772C216.091 7.08267 215.321 6.738 214.368 6.738C213.752 6.738 213.202 6.88467 212.718 7.178C212.234 7.47133 211.845 7.89667 211.552 8.454C211.259 9.01133 211.112 9.69333 211.112 10.5C211.112 11.292 211.259 11.9667 211.552 12.524C211.845 13.0813 212.234 13.514 212.718 13.822C213.202 14.1153 213.752 14.262 214.368 14.262C215.321 14.262 216.091 13.9173 216.678 13.228C217.279 12.5387 217.58 11.6293 217.58 10.5ZM229.031 16L228.855 14.394C228.518 14.9513 228.078 15.384 227.535 15.692C227.007 15.9853 226.318 16.132 225.467 16.132C224.675 16.132 224.001 16.0073 223.443 15.758C222.886 15.494 222.453 15.1347 222.145 14.68C221.852 14.2107 221.705 13.668 221.705 13.052C221.705 12.128 222.05 11.3653 222.739 10.764C223.429 10.148 224.426 9.76667 225.731 9.62L228.855 9.268V8.41C228.855 7.94067 228.665 7.54467 228.283 7.222C227.902 6.88467 227.352 6.716 226.633 6.716C225.959 6.716 225.387 6.87733 224.917 7.2C224.448 7.508 224.133 7.97 223.971 8.586L222.123 7.926C222.402 6.958 222.945 6.20267 223.751 5.66C224.573 5.11733 225.563 4.846 226.721 4.846C228.1 4.846 229.149 5.19067 229.867 5.88C230.586 6.56933 230.945 7.47867 230.945 8.608V16H229.031ZM228.855 10.962L225.841 11.336C225.196 11.424 224.712 11.6073 224.389 11.886C224.067 12.15 223.905 12.502 223.905 12.942C223.905 13.3527 224.059 13.6973 224.367 13.976C224.69 14.24 225.137 14.372 225.709 14.372C226.413 14.372 227 14.24 227.469 13.976C227.939 13.712 228.283 13.3453 228.503 12.876C228.738 12.392 228.855 11.8347 228.855 11.204V10.962ZM238.631 16.154C237.575 16.154 236.644 15.9193 235.837 15.45C235.03 14.966 234.4 14.306 233.945 13.47C233.505 12.634 233.285 11.6587 233.285 10.544C233.285 9.41467 233.512 8.42467 233.967 7.574C234.422 6.72333 235.052 6.056 235.859 5.572C236.666 5.088 237.604 4.846 238.675 4.846C239.804 4.846 240.794 5.11 241.645 5.638C242.51 6.166 243.134 6.87733 243.515 7.772L241.645 8.432C241.425 7.91867 241.051 7.508 240.523 7.2C240.01 6.892 239.423 6.738 238.763 6.738C238.088 6.738 237.509 6.89933 237.025 7.222C236.541 7.53 236.167 7.97 235.903 8.542C235.639 9.09933 235.507 9.75933 235.507 10.522C235.507 11.666 235.8 12.5753 236.387 13.25C236.974 13.9247 237.766 14.262 238.763 14.262C239.423 14.262 240.01 14.1153 240.523 13.822C241.051 13.5287 241.447 13.1253 241.711 12.612L243.559 13.272C243.148 14.152 242.503 14.856 241.623 15.384C240.743 15.8973 239.746 16.154 238.631 16.154ZM250.857 16.154C249.801 16.154 248.862 15.912 248.041 15.428C247.234 14.9293 246.596 14.2473 246.127 13.382C245.672 12.5167 245.445 11.5267 245.445 10.412C245.445 9.34133 245.672 8.388 246.127 7.552C246.582 6.716 247.205 6.056 247.997 5.572C248.804 5.088 249.713 4.846 250.725 4.846C251.752 4.846 252.661 5.07333 253.453 5.528C254.245 5.968 254.861 6.59133 255.301 7.398C255.741 8.19 255.954 9.10667 255.939 10.148C255.939 10.324 255.932 10.5073 255.917 10.698C255.902 10.874 255.88 11.072 255.851 11.292H247.711C247.755 11.8787 247.916 12.3993 248.195 12.854C248.488 13.294 248.855 13.6387 249.295 13.888C249.75 14.1373 250.263 14.262 250.835 14.262C251.568 14.262 252.206 14.1227 252.749 13.844C253.292 13.5507 253.673 13.162 253.893 12.678L255.697 13.316C255.257 14.2107 254.612 14.9073 253.761 15.406C252.925 15.9047 251.957 16.154 250.857 16.154ZM253.673 9.51C253.673 8.982 253.541 8.50533 253.277 8.08C253.013 7.65467 252.654 7.32467 252.199 7.09C251.759 6.84067 251.26 6.716 250.703 6.716C250.204 6.716 249.742 6.84067 249.317 7.09C248.906 7.32467 248.554 7.65467 248.261 8.08C247.982 8.49067 247.806 8.96733 247.733 9.51H253.673Z" fill="#33CC94"/>
</svg>
