<svg width="50" height="50" viewBox="0 0 50 50" fill="none" xmlns="http://www.w3.org/2000/svg">
<rect width="50" height="50" rx="8" fill="#E9FFF7"/>
<path d="M25 36.6673C28.25 36.6673 31.0069 35.5354 33.2708 33.2715C35.5347 31.0076 36.6666 28.2507 36.6666 25.0007C36.6666 21.7507 35.5347 18.9937 33.2708 16.7298C31.0069 14.4659 28.25 13.334 25 13.334V25.0007L17.0416 33.334C18.0694 34.4173 19.2778 35.2437 20.6666 35.8131C22.0555 36.3826 23.5 36.6673 25 36.6673ZM25 41.6673C22.7222 41.6673 20.5694 41.2298 18.5416 40.3548C16.5139 39.4798 14.743 38.2854 13.2291 36.7715C11.7153 35.2576 10.5208 33.4868 9.64581 31.459C8.77081 29.4312 8.33331 27.2784 8.33331 25.0007C8.33331 22.6951 8.77081 20.5284 9.64581 18.5007C10.5208 16.4729 11.7153 14.709 13.2291 13.209C14.743 11.709 16.5139 10.5215 18.5416 9.64648C20.5694 8.77148 22.7222 8.33398 25 8.33398C27.3055 8.33398 29.4722 8.77148 31.5 9.64648C33.5278 10.5215 35.2916 11.709 36.7916 13.209C38.2916 14.709 39.4791 16.4729 40.3541 18.5007C41.2291 20.5284 41.6666 22.6951 41.6666 25.0007C41.6666 27.2784 41.2291 29.4312 40.3541 31.459C39.4791 33.4868 38.2916 35.2576 36.7916 36.7715C35.2916 38.2854 33.5278 39.4798 31.5 40.3548C29.4722 41.2298 27.3055 41.6673 25 41.6673ZM25 39.1673C28.9444 39.1673 32.2916 37.7854 35.0416 35.0215C37.7916 32.2576 39.1666 28.9173 39.1666 25.0007C39.1666 21.0562 37.7916 17.709 35.0416 14.959C32.2916 12.209 28.9444 10.834 25 10.834C21.0833 10.834 17.743 12.209 14.9791 14.959C12.2153 17.709 10.8333 21.0562 10.8333 25.0007C10.8333 28.9173 12.2153 32.2576 14.9791 35.0215C17.743 37.7854 21.0833 39.1673 25 39.1673Z" fill="#33CC94"/>
</svg>
