<svg width="70" height="70" viewBox="0 0 70 70" fill="none" xmlns="http://www.w3.org/2000/svg">
<rect width="70" height="70" rx="8" fill="#E9FFF7"/>
<path d="M35 47.25C38.4125 47.25 41.3073 46.0615 43.6844 43.6844C46.0615 41.3073 47.25 38.4125 47.25 35C47.25 31.5875 46.0615 28.6927 43.6844 26.3156C41.3073 23.9385 38.4125 22.75 35 22.75V35L26.6438 43.75C27.7229 44.8875 28.9917 45.7552 30.45 46.3531C31.9083 46.951 33.425 47.25 35 47.25ZM35 52.5C32.6083 52.5 30.3479 52.0406 28.2188 51.1219C26.0896 50.2031 24.2302 48.949 22.6406 47.3594C21.051 45.7698 19.7969 43.9104 18.8781 41.7812C17.9594 39.6521 17.5 37.3917 17.5 35C17.5 32.5792 17.9594 30.3042 18.8781 28.175C19.7969 26.0458 21.051 24.1938 22.6406 22.6188C24.2302 21.0438 26.0896 19.7969 28.2188 18.8781C30.3479 17.9594 32.6083 17.5 35 17.5C37.4208 17.5 39.6958 17.9594 41.825 18.8781C43.9542 19.7969 45.8063 21.0438 47.3813 22.6188C48.9563 24.1938 50.2031 26.0458 51.1219 28.175C52.0406 30.3042 52.5 32.5792 52.5 35C52.5 37.3917 52.0406 39.6521 51.1219 41.7812C50.2031 43.9104 48.9563 45.7698 47.3813 47.3594C45.8063 48.949 43.9542 50.2031 41.825 51.1219C39.6958 52.0406 37.4208 52.5 35 52.5ZM35 49.875C39.1417 49.875 42.6562 48.424 45.5437 45.5219C48.4312 42.6198 49.875 39.1125 49.875 35C49.875 30.8583 48.4312 27.3438 45.5437 24.4562C42.6562 21.5687 39.1417 20.125 35 20.125C30.8875 20.125 27.3802 21.5687 24.4781 24.4562C21.576 27.3438 20.125 30.8583 20.125 35C20.125 39.1125 21.576 42.6198 24.4781 45.5219C27.3802 48.424 30.8875 49.875 35 49.875Z" fill="#33CC94"/>
</svg>
