<svg width="56" height="56" viewBox="0 0 56 56" fill="none" xmlns="http://www.w3.org/2000/svg">
<rect width="56" height="56" rx="8" fill="#E9FFF7"/>
<path d="M28 39.6673C31.25 39.6673 34.007 38.5354 36.2709 36.2715C38.5348 34.0076 39.6667 31.2507 39.6667 28.0007C39.6667 24.7507 38.5348 21.9937 36.2709 19.7298C34.007 17.4659 31.25 16.334 28 16.334V28.0007L20.0417 36.334C21.0695 37.4173 22.2778 38.2437 23.6667 38.8131C25.0556 39.3826 26.5 39.6673 28 39.6673ZM28 44.6673C25.7223 44.6673 23.5695 44.2298 21.5417 43.3548C19.5139 42.4798 17.7431 41.2854 16.2292 39.7715C14.7153 38.2576 13.5209 36.4868 12.6459 34.459C11.7709 32.4312 11.3334 30.2784 11.3334 28.0007C11.3334 25.6951 11.7709 23.5284 12.6459 21.5007C13.5209 19.4729 14.7153 17.709 16.2292 16.209C17.7431 14.709 19.5139 13.5215 21.5417 12.6465C23.5695 11.7715 25.7223 11.334 28 11.334C30.3056 11.334 32.4723 11.7715 34.5 12.6465C36.5278 13.5215 38.2917 14.709 39.7917 16.209C41.2917 17.709 42.4792 19.4729 43.3542 21.5007C44.2292 23.5284 44.6667 25.6951 44.6667 28.0007C44.6667 30.2784 44.2292 32.4312 43.3542 34.459C42.4792 36.4868 41.2917 38.2576 39.7917 39.7715C38.2917 41.2854 36.5278 42.4798 34.5 43.3548C32.4723 44.2298 30.3056 44.6673 28 44.6673ZM28 42.1673C31.9445 42.1673 35.2917 40.7854 38.0417 38.0215C40.7917 35.2576 42.1667 31.9173 42.1667 28.0007C42.1667 24.0562 40.7917 20.709 38.0417 17.959C35.2917 15.209 31.9445 13.834 28 13.834C24.0834 13.834 20.7431 15.209 17.9792 17.959C15.2153 20.709 13.8334 24.0562 13.8334 28.0007C13.8334 31.9173 15.2153 35.2576 17.9792 38.0215C20.7431 40.7854 24.0834 42.1673 28 42.1673Z" fill="#33CC94"/>
</svg>
