<svg width="56" height="56" viewBox="0 0 56 56" fill="none" xmlns="http://www.w3.org/2000/svg">
<rect width="56" height="56" rx="8" fill="#E9FFF7"/>
<g clip-path="url(#clip0_5326_11350)">
<path d="M23 29.6673C26.6819 29.6673 29.6666 26.6825 29.6666 23.0007C29.6666 19.3188 26.6819 16.334 23 16.334C19.3181 16.334 16.3333 19.3188 16.3333 23.0007C16.3333 26.6825 19.3181 29.6673 23 29.6673Z" fill="#33CC94"/>
<path d="M23 33.0007C18.55 33.0007 9.66669 35.234 9.66669 39.6673V43.0007H36.3334V39.6673C36.3334 35.234 27.45 33.0007 23 33.0007ZM35.9334 16.934L33.1334 19.7507C34.5334 21.7173 34.5334 24.2673 33.1334 26.234L35.9334 29.0507C39.3 25.684 39.3 20.6007 35.9334 16.934ZM41.45 11.334L38.7334 14.0507C43.35 19.084 43.35 26.6507 38.7334 31.9507L41.45 34.6673C47.95 28.184 47.9667 18.084 41.45 11.334Z" fill="#33CC94"/>
</g>
<defs>
<clipPath id="clip0_5326_11350">
<rect x="8" y="8" width="40" height="40" fill="white"/>
</clipPath>
</defs>
</svg>
