<svg width="70" height="70" viewBox="0 0 70 70" fill="none" xmlns="http://www.w3.org/2000/svg">
<rect width="70" height="70" rx="8" fill="#E9FFF7"/>
<g clip-path="url(#clip0_4185_11670)">
<path d="M29.75 36.75C33.616 36.75 36.75 33.616 36.75 29.75C36.75 25.884 33.616 22.75 29.75 22.75C25.884 22.75 22.75 25.884 22.75 29.75C22.75 33.616 25.884 36.75 29.75 36.75Z" fill="#33CC94"/>
<path d="M29.75 40.25C25.0775 40.25 15.75 42.595 15.75 47.25V50.75H43.75V47.25C43.75 42.595 34.4225 40.25 29.75 40.25ZM43.33 23.38L40.39 26.3375C41.86 28.4025 41.86 31.08 40.39 33.145L43.33 36.1025C46.865 32.5675 46.865 27.23 43.33 23.38ZM49.1225 17.5L46.27 20.3525C51.1175 25.6375 51.1175 33.5825 46.27 39.1475L49.1225 42C55.9475 35.1925 55.965 24.5875 49.1225 17.5Z" fill="#33CC94"/>
</g>
<defs>
<clipPath id="clip0_4185_11670">
<rect x="14" y="14" width="42" height="42" fill="white"/>
</clipPath>
</defs>
</svg>
