<svg width="32" height="32" viewBox="0 0 32 32" fill="none" xmlns="http://www.w3.org/2000/svg">
<path d="M31 6.84684C29.9335 7.32792 28.7879 7.65297 27.5835 7.79989C28.8262 7.0429 29.7559 5.85148 30.1992 4.44795C29.0316 5.15395 27.7538 5.6509 26.4213 5.91719C25.5251 4.94315 24.3382 4.29755 23.0448 4.0806C21.7513 3.86366 20.4237 4.08752 19.268 4.71742C18.1123 5.34732 17.1932 6.34803 16.6535 7.56417C16.1137 8.78031 15.9834 10.1439 16.2829 11.4431C13.9171 11.3222 11.6028 10.6962 9.49002 9.60576C7.37727 8.51535 5.51336 6.98487 4.01925 5.11366C3.50837 6.0108 3.21461 7.05097 3.21461 8.15875C3.21404 9.15601 3.45528 10.138 3.91692 11.0176C4.37855 11.8972 5.04632 12.6471 5.86096 13.201C4.91619 13.1704 3.99226 12.9105 3.16608 12.443V12.521C3.16598 13.9197 3.64124 15.2753 4.5112 16.3579C5.38116 17.4405 6.59225 18.1833 7.93896 18.4603C7.06253 18.7018 6.14365 18.7374 5.25174 18.5644C5.6317 19.7678 6.37183 20.8203 7.36852 21.5742C8.36521 22.3282 9.56855 22.7461 10.8101 22.7692C8.70251 24.4535 6.09965 25.3672 3.42024 25.3632C2.94561 25.3633 2.47138 25.3351 2 25.2786C4.71976 27.0589 7.88575 28.0037 11.1192 28C22.0647 28 28.0484 18.7711 28.0484 10.767C28.0484 10.5069 28.042 10.2443 28.0305 9.98425C29.1944 9.12738 30.1991 8.0663 30.9974 6.85074L31 6.84684V6.84684Z" fill="#33CC94"/>
</svg>
