<svg width="27" height="22" viewBox="0 0 27 22" fill="none" xmlns="http://www.w3.org/2000/svg">
<path d="M23.7071 5.3486C23.7228 5.5817 23.7228 5.8148 23.7228 6.05004C23.7228 13.218 18.402 21.4849 8.6725 21.4849V21.4806C5.79839 21.4849 2.98399 20.6406 0.564453 19.0486C0.982372 19.1002 1.40239 19.126 1.82345 19.1271C4.20527 19.1292 6.51902 18.3096 8.39284 16.8004C6.12938 16.7563 4.14452 15.2428 3.45113 13.0333C4.24403 13.1901 5.06101 13.1579 5.83924 12.9398C3.37153 12.4285 1.59616 10.205 1.59616 7.62263C1.59616 7.599 1.59616 7.57644 1.59616 7.55389C2.33144 7.97389 3.15471 8.20698 3.99684 8.23276C1.67262 6.63976 0.956187 3.4688 2.35972 0.989598C5.0453 4.37862 9.00768 6.43889 13.2612 6.65695C12.8349 4.77284 13.4173 2.79851 14.7915 1.47405C16.922 -0.579773 20.2726 -0.474504 22.2753 1.7093C23.4599 1.46975 24.5953 1.02397 25.6344 0.392356C25.2395 1.64807 24.4131 2.71472 23.3091 3.39253C24.3576 3.26578 25.3819 2.9779 26.3466 2.53856C25.6365 3.62992 24.742 4.58057 23.7071 5.3486Z" fill="#1D9BF0"/>
</svg>
