<svg width="124" height="124" viewBox="0 0 124 124" fill="none" xmlns="http://www.w3.org/2000/svg">
<path d="M104.255 17.4004H12.0052C5.38552 17.4004 0 22.7859 0 29.4059V31.0343C0 37.654 5.38552 43.0396 12.0052 43.0396H104.256C105.262 43.0396 106.077 42.2244 106.077 41.2183V19.2216C106.077 18.2156 105.262 17.4004 104.255 17.4004Z" fill="#7C3D1E"/>
<path d="M0.497211 25.9932C0.175344 27.0757 0 28.2203 0 29.4063V31.0348C0 37.6545 5.38552 43.04 12.0052 43.04H104.256C105.262 43.04 106.077 42.2248 106.077 41.2188V34.5787H12.0052C6.56328 34.5785 1.96995 30.9568 0.497211 25.9932Z" fill="#68321A"/>
<path d="M58.0499 11.7998L51.1309 4.88095C50.4198 4.16989 49.2665 4.16989 48.555 4.88095L13.5061 39.9298C12.9851 40.451 12.8294 41.234 13.1115 41.9148C13.3932 42.5956 14.0578 43.0393 14.7943 43.0393H28.6321C29.1151 43.0393 29.5784 42.8475 29.9201 42.506L58.0502 14.3759C58.3916 14.0342 58.5835 13.5711 58.5835 13.088C58.5835 12.6048 58.3914 12.1417 58.0499 11.7998Z" fill="#78AA17"/>
<path d="M18.7749 34.6611L13.5061 39.9299C12.9851 40.4511 12.8294 41.2341 13.1115 41.9149C13.3932 42.5957 14.0578 43.0394 14.7943 43.0394H28.6321C29.115 43.0394 29.5784 42.8476 29.9201 42.5061L37.7648 34.6614L18.7749 34.6611Z" fill="#6D8915"/>
<path d="M100.017 39.9298L64.9688 4.88095C64.2572 4.16989 63.1042 4.16989 62.3926 4.88095L27.344 39.9298C26.823 40.451 26.6673 41.234 26.9494 41.9148C27.2311 42.5956 27.8957 43.0393 28.6322 43.0393H98.7299C99.4664 43.0393 100.131 42.5956 100.413 41.9148C100.694 41.234 100.538 40.4508 100.017 39.9298Z" fill="#8ACC19"/>
<path d="M27.344 39.9299C26.823 40.4511 26.6673 41.2341 26.9494 41.9149C27.2311 42.5957 27.8957 43.0394 28.6322 43.0394H98.7299C99.4664 43.0394 100.131 42.5957 100.413 41.9149C100.695 41.2341 100.539 40.4511 100.018 39.9299L94.7493 34.6611H32.6127L27.344 39.9299Z" fill="#78A017"/>
<path d="M89.6619 39.9301L70.2029 20.4708C69.8612 20.1293 69.3979 19.9375 68.9149 19.9375C68.432 19.9375 67.969 20.1293 67.627 20.4708C66.5805 21.5175 65.1894 22.0939 63.7091 22.0939C62.2291 22.0939 60.8377 21.5178 59.7913 20.471C59.4498 20.1293 58.9865 19.9375 58.5033 19.9375C58.0201 19.9375 57.5571 20.1293 57.2153 20.4708L37.7561 39.9301C37.2351 40.4513 37.0794 41.2343 37.3615 41.915C37.6432 42.5958 38.3078 43.0395 39.0443 43.0395H88.3742C89.1107 43.0395 89.7753 42.5958 90.0569 41.915C90.3386 41.2343 90.1826 40.451 89.6619 39.9301Z" fill="#78A017"/>
<path d="M37.7541 39.9299C37.2332 40.4511 37.0774 41.2341 37.3596 41.9149C37.6413 42.5957 38.3058 43.0394 39.0423 43.0394H88.3723C89.1088 43.0394 89.7733 42.5957 90.055 41.9149C90.3369 41.2341 90.1812 40.4511 89.6605 39.9299L84.3917 34.6611H43.0227L37.7541 39.9299Z" fill="#6D8915"/>
<path d="M115.573 39.3966H28.923H12.8195H9.84928C4.619 39.3966 0.341 35.3281 0.0019375 30.1836C0.00169531 30.1957 0 30.2078 0 30.2206V30.2209V106.832C0 113.901 5.75074 119.652 12.8195 119.652H115.573C116.579 119.652 117.394 118.836 117.394 117.83V41.2179C117.394 40.2121 116.579 39.3966 115.573 39.3966Z" fill="#AA5D24"/>
<path d="M117.395 70.6807H97.7911C90.469 70.6807 84.5117 76.6375 84.5117 83.96C84.5117 91.2821 90.4686 97.2394 97.7911 97.2394H117.395V70.6807Z" fill="#7C3D1E"/>
<path d="M118.537 66.0039H97.7911C90.469 66.0039 84.5117 71.9607 84.5117 79.2833C84.5117 86.6053 90.4686 92.5627 97.7911 92.5627H118.537C121.55 92.5627 124.001 90.1115 124.001 87.0987V71.4681C124.001 68.4548 121.55 66.0039 118.537 66.0039Z" fill="#F99608"/>
<path d="M99.3337 73.3408C96.0579 73.3408 93.3926 76.0063 93.3926 79.2822C93.3926 82.558 96.0579 85.2233 99.3337 85.2233C102.61 85.2233 105.275 82.558 105.275 79.2822C105.275 76.0063 102.61 73.3408 99.3337 73.3408Z" fill="#FFD039"/>
</svg>
