<svg width="32" height="32" viewBox="0 0 32 32" fill="none" xmlns="http://www.w3.org/2000/svg">
<path d="M15.987 3C8.811 3 3 8.824 3 16C3 23.176 8.811 29 15.987 29C23.176 29 29 23.176 29 16C29 8.824 23.176 3 15.987 3ZM24.996 10.8H21.161C20.745 9.175 20.147 7.615 19.367 6.172C21.759 6.991 23.748 8.655 24.996 10.8ZM16 5.652C17.079 7.212 17.924 8.941 18.483 10.8H13.517C14.076 8.941 14.921 7.212 16 5.652ZM5.938 18.6C5.73 17.768 5.6 16.897 5.6 16C5.6 15.103 5.73 14.232 5.938 13.4H10.332C10.228 14.258 10.15 15.116 10.15 16C10.15 16.884 10.228 17.742 10.332 18.6H5.938ZM7.004 21.2H10.839C11.255 22.825 11.853 24.385 12.633 25.828C10.241 25.009 8.252 23.358 7.004 21.2V21.2ZM10.839 10.8H7.004C8.252 8.642 10.241 6.991 12.633 6.172C11.853 7.615 11.255 9.175 10.839 10.8V10.8ZM16 26.348C14.921 24.788 14.076 23.059 13.517 21.2H18.483C17.924 23.059 17.079 24.788 16 26.348ZM19.042 18.6H12.958C12.841 17.742 12.75 16.884 12.75 16C12.75 15.116 12.841 14.245 12.958 13.4H19.042C19.159 14.245 19.25 15.116 19.25 16C19.25 16.884 19.159 17.742 19.042 18.6ZM19.367 25.828C20.147 24.385 20.745 22.825 21.161 21.2H24.996C23.748 23.345 21.759 25.009 19.367 25.828V25.828ZM21.668 18.6C21.772 17.742 21.85 16.884 21.85 16C21.85 15.116 21.772 14.258 21.668 13.4H26.062C26.27 14.232 26.4 15.103 26.4 16C26.4 16.897 26.27 17.768 26.062 18.6H21.668Z" fill="#152934"/>
</svg>
