<svg width="33" height="23" viewBox="0 0 33 23" fill="none" xmlns="http://www.w3.org/2000/svg">
<path fill-rule="evenodd" clip-rule="evenodd" d="M31.6779 3.49752C31.3099 2.12095 30.2257 1.03651 28.8489 0.668527C26.3534 0 16.3465 0 16.3465 0C16.3465 0 6.33998 0 3.84446 0.668527C2.46763 1.03651 1.38345 2.12095 1.01547 3.49752C0.34668 5.9933 0.34668 11.1998 0.34668 11.1998C0.34668 11.1998 0.34668 16.4066 1.01547 18.9021C1.38345 20.2787 2.46763 21.3634 3.84446 21.7311C6.33998 22.3999 16.3465 22.3999 16.3465 22.3999C16.3465 22.3999 26.3534 22.3999 28.8489 21.7311C30.2257 21.3634 31.3099 20.2787 31.6779 18.9021C32.3467 16.4066 32.3467 11.1998 32.3467 11.1998C32.3467 11.1998 32.3467 5.9933 31.6779 3.49752Z" fill="#FF0000"/>
<path fill-rule="evenodd" clip-rule="evenodd" d="M13.1465 16.0005L21.4599 11.2007L13.1465 6.40039V16.0005Z" fill="white"/>
</svg>
